ProbingFolikiinaSans-wt300.sfdir
StartChar: parenleft
Encoding: 40 40 251
Width: 510
Flags: HW
LayerCount: 2
Back
SplineSet
542 -198 m 5
 347 -117 206 71.9240627984 206 309 c 7
 206 547.891601562 318.771407857 710 437 710 c 7
 488 710 506 651 506 600 c 31
 506 557 489 506 446 506 c 7
 417 506 403 511 382 525 c 1037
EndSplineSet
Fore
SplineSet
73 314 m 0xdc
 73 586.513671875 228.381835938 738 341 738 c 7
 419.551757812 738 449 691.181640625 449 600 c 3
 449 506.953125 422.456054688 444 358 444 c 3xdc
 334.373046875 444 315 447 301 456 c 1
 301.486328125 511.208007812 l 1xbc
 311.486328125 511.20703125 l 1
 322 506 332.875 503 348 503 c 3
 372.155273438 503 389 524.850585938 389 600 c 3
 389 670.438476562 363.415039062 680 339 680 c 3
 258.853515625 680 133 554.01171875 133 314 c 0
 133 87.8994140625 236.385742188 -92.14453125 419 -168 c 1
 419 -178 l 1
 309 -178 l 1
 164 -90 73 65.94921875 73 314 c 0xdc
EndSplineSet
EndChar
StartChar: comma
Encoding: 44 44 54
Width: 310
Flags: HW
HStem: -177 237
VStem: 33 228
LayerCount: 2
Fore
SplineSet
261 40 m 1
 81 -177 l 5
 33 -177 l 5
 33 -167 l 5
 175 60 l 1
 261 60 l 1
 261 40 l 1
EndSplineSet
EndChar
StartChar: hyphen
Encoding: 45 45 50
Width: 370
Flags: HW
HStem: 230 50<53 317>
VStem: 53 264<230 280>
LayerCount: 2
Fore
SplineSet
53 230 m 5
 53 280 l 5
 317 280 l 5
 317 230 l 5
 53 230 l 5
EndSplineSet
EndChar
StartChar: period
Encoding: 46 46 49
Width: 400
Flags: HW
HStem: -4 50<181.746 286.911> 189 50<12 150 194 285.328>
VStem: 112 54<61.1364 187.963> 304 56<62.8183 170.784>
LayerCount: 2
Fore
SplineSet
244 46 m 3
 285 46 312 74 312 116 c 0
 312 162 280 189 240 189 c 2
 20 189 l 1
 20 239 l 1
 239 239 l 2
 320 239 368 187 368 116 c 0
 368 55 328 -4 247 -4 c 3
 168 -4 120 47 120 113 c 0
 120 170 150 208 168 226 c 2
 171 229 l 1
 222 202 l 1
 204 194 174 156 174 113 c 0
 174 77 195 46 244 46 c 3
EndSplineSet
EndChar
StartChar: zero
Encoding: 48 48 258
Width: 600
Flags: HW
HStem: -4 60<235.553 365.373> 342 60<122 482> 676 60<234.627 364.447>
VStem: 77 446<114 335 342 618> 122 23<342 402> 455 68<186.43 342 397 551.026> 455 27<342 402>
LayerCount: 2
Fore
SplineSet
82 252 m 25xfa
 82 312 l 25
 482 312 l 25
 482 252 l 25
 82 252 l 25xfa
82 422 m 25
 82 482 l 25
 482 482 l 25
 482 422 l 25
 82 422 l 25
78 682 m 1
 133 718 193 736 272 736 c 0
 439 736 523 618 523 397 c 2
 523 335 l 2
 523 114 435 -4 268 -4 c 0
 184 -4 138 3 78 40 c 1
 78 116 l 25
 88 116 l 1
 148 70 207 56 270 56 c 0
 400 56 455 165 455 335 c 2
 455 397 l 2xfc
 455 567 401 676 270 676 c 0
 202 676 146 653 88 610 c 1
 78 610 l 25
 78 682 l 1
EndSplineSet
EndChar
StartChar: one
Encoding: 49 49 259
Width: 420
Flags: HW
LayerCount: 2
Fore
SplineSet
42 142 m 25x90
 42 202 l 25
 378 202 l 25
 378 142 l 25
 42 142 l 25x90
243 0 m 5
 177 0 l 5
 177 734 l 5
 243 734 l 5xd0
 243 0 l 5
EndSplineSet
EndChar
StartChar: four
Encoding: 52 52 244
Width: 600
Flags: HW
HStem: -4 60<235.553 365.373> 342 60<122 482> 676 60<234.627 364.447>
VStem: 77 446<114 335 342 618> 122 23<342 402> 455 68<186.43 342 397 551.026> 455 27<342 402>
LayerCount: 2
Fore
SplineSet
122 342 m 29xea
 122 402 l 29
 482 402 l 29
 482 342 l 29
 122 342 l 29xea
77 397 m 2xf0
 77 618 164.830078125 736 302 736 c 0
 439.053710938 736 523 618 523 397 c 2
 523 335 l 2
 523 114 435.169921875 -4 298 -4 c 0
 160.946289062 -4 77 114 77 335 c 2
 77 397 l 2xf0
455 397 m 2xec
 455 547 400.596679688 676 300 676 c 0
 199.572265625 676 145 547 145 397 c 2
 145 335 l 2
 145 185 199.403320312 56 300 56 c 0
 400.427734375 56 455 185 455 335 c 2
 455 397 l 2xec
EndSplineSet
EndChar
StartChar: five
Encoding: 53 53 242
Width: 620
Flags: HW
HStem: 0 21G<92 158 424 490> 450 60<255.211 388.548>
VStem: 92 66<0 333 361 506> 424 66<0 411.162>
LayerCount: 2
Fore
SplineSet
158 384 m 5xd8
 158 0 l 5
 92 0 l 5
 92 506 l 5
 144 506 l 5
 462 122 l 5
 462 734 l 5
 528 734 l 5
 528 0 l 5
 476 0 l 5
 158 384 l 5xd8
EndSplineSet
EndChar
StartChar: seven
Encoding: 55 55 262
Width: 600
Flags: HW
LayerCount: 2
Fore
SplineSet
149 470 m 1x00
 149 552 l 1
 159 552 l 1
 453 260 l 1
 453 179 l 1
 443 179 l 1
 149 470 l 1x00
334 -5 m 1xa0
 268 30 l 1
 268 739 l 1
 334 694 l 1
 334 -5 l 1xa0
313 739 m 1
 541 544 l 1
 541 492 l 1
 129 214 l 1
 319 45 l 1
 334 -5 l 1
 285 -5 l 1
 61 192 l 1
 61 242 l 1
 475 518 l 1
 271 690 l 1
 268 739 l 1
 313 739 l 1
EndSplineSet
EndChar
StartChar: eight
Encoding: 56 56 263
Width: 601
Flags: HW
LayerCount: 2
Fore
SplineSet
148.504882812 439 m 1x28
 92.7109375 471 l 1
 132.096679688 638 254.369140625 738 433 738 c 3x28
 470 738 503 735 525 729 c 1
 525 665 l 1
 515 665 l 1x30
 494 675.981445312 467 678 427 678 c 3
 295.149414062 678 180 591 148.504882812 439 c 1x28
489 400 m 1
 489 340 l 1
 119 340 l 1
 119 400 l 1x22
 489 400 l 1
148.504882812 295 m 1
 180 143 296.149414062 56 431 56 c 3xa0
 467 56 494 58.0185546875 515 69 c 1
 525 69 l 1
 525 5 l 1x60
 503 -1 470 -4 429 -4 c 3xa0
 252.369140625 -4 132.096679688 96 92.7109375 263 c 1
 148.504882812 295 l 1
153 0 m 1x22
 87 0 l 1
 87 734 l 1
 153 734 l 1x24
 153 0 l 1x22
EndSplineSet
EndChar
StartChar: equal
Encoding: 61 61 237
Width: 440
Flags: HW
HStem: 230 50<53 317>
VStem: 53 264<230 280>
LayerCount: 2
Fore
SplineSet
73 340 m 1
 73 390 l 1
 367 390 l 1
 367 340 l 1
 73 340 l 1
73 170 m 5
 73 220 l 5
 367 220 l 5
 367 170 l 5
 73 170 l 5
EndSplineSet
EndChar
StartChar: greater
Encoding: 62 62 236
Width: 400
Flags: HW
HStem: 0 21G<236.407 329 446.407 539>
LayerCount: 2
Fore
SplineSet
348 240 m 1
 76 0 l 1
 66 0 l 1
 66 74 l 1
 272.685546875 253 l 1
 66 432 l 1
 66 506 l 1
 76 506 l 1
 348 265 l 1
 348 240 l 1
EndSplineSet
EndChar
StartChar: question
Encoding: 63 63 247
Width: 522
Flags: HW
HStem: -4 50<181.746 286.911> 189 50<12 150 194 285.328>
VStem: 112 54<61.1364 187.963> 304 56<62.8183 170.784>
LayerCount: 2
Back
SplineSet
156 605 m 7
 115 605 88 577 88 535 c 4
 88 489 120 462 160 462 c 6
 380 462 l 5
 380 412 l 5
 161 412 l 6
 80 412 32 464 32 535 c 4
 32 596 72 655 153 655 c 7
 232 655 280 604 280 538 c 4
 280 481 250 443 232 425 c 6
 229 422 l 5
 178 449 l 5
 196 457 226 495 226 538 c 4
 226 574 205 605 156 605 c 7
244 46 m 7
 285 46 312 74 312 116 c 4
 312 162 280 189 240 189 c 6
 20 189 l 5
 20 239 l 5
 239 239 l 6
 320 239 368 187 368 116 c 4
 368 55 328 -4 247 -4 c 7
 168 -4 120 47 120 113 c 4
 120 170 150 208 168 226 c 6
 171 229 l 5
 222 202 l 5
 204 194 174 156 174 113 c 4
 174 77 195 46 244 46 c 7
EndSplineSet
Fore
SplineSet
324 412 m 1xf9
 324 462 l 1
 488 462 l 1
 488 412 l 1
 324 412 l 1xf9
236 46 m 3
 277 46 304 74 304 116 c 0
 304 162 272 189 232 189 c 2
 62 189 l 1
 62 239 l 1
 231 239 l 2
 312 239 360 187 360 116 c 0xfa
 360 55 320 -4 239 -4 c 3
 160 -4 112 47 112 113 c 0
 112 170 142 208 160 226 c 2
 163 229 l 1
 214 202 l 1
 196 194 166 156 166 113 c 0
 166 77 187 46 236 46 c 3
423 810 m 1
 423 750 l 1
 387.416992188 750 357 700.038085938 357 662 c 2
 357 315 l 2
 357 259.427906872 331.435676611 217.291677328 286.725398364 199.000001253 c 1
 231 229 l 1
 231 239 l 1
 278 239 291 271.102290307 291 315 c 2
 291 662 l 2xfc
 291 697.00390625 303.076171875 731.723632812 325.284179688 750 c 1
 90 750 l 1
 90 810 l 1
 423 810 l 1
EndSplineSet
EndChar
StartChar: B
Encoding: 66 66 74
Width: 560
Flags: HWO
HStem: 419 67<406.75 476> 451 55<222.083 443.908>
VStem: 67 66<159.955 351.529> 285 66<-178 6.25551>
LayerCount: 2
Fore
SplineSet
164 506 m 1x9c
 486 80 l 1
 486 -4 l 1
 476 -4 l 1
 95 496 l 1
 95 506 l 1
 164 506 l 1x9c
351 -178 m 1
 285 -178 l 1
 285 1.7255859375 l 1
 172 22.67578125 67 94.212890625 67 253 c 4
 67 436 208 511 330 511 c 0
 386 511 430 502 476 486 c 1
 476 419 l 1
 467 419 l 1x2c
 421 439 385 451 328 451 c 0
 238 451 133 390 133 255 c 4
 133 119.412109375 228 64.4609375 351 56.001953125 c 1
 351 -178 l 1
EndSplineSet
EndChar
StartChar: D
Encoding: 68 68 76
Width: 570
Flags: HW
HStem: -4 60<163.113 362.834> 450 60<219.6 377.15> 714 20G<96 162> 714 20G<96 162>
VStem: 96 66<63.9219 402.815 458 734> 442 66<143.704 375.45>
LayerCount: 2
Fore
SplineSet
307 510 m 0xec
 406 510 508 451 508 263 c 0
 508 53 379 -4 271 -4 c 0
 215 -4 155 5 96 18 c 1
 96 734 l 1
 162 734 l 1
 162 458 l 1
 203 496 259 510 307 510 c 0xec
162 68 m 1
 198 60 240 56 278 56 c 0
 366 56 442 110 442 258 c 0
 442 397 380 450 305 450 c 0
 261 450 210 433 162 384 c 1
 162 68 l 1
EndSplineSet
EndChar
StartChar: E
Encoding: 69 69 77
Width: 560
Flags: HW
HStem: 216 75<25 114.31 445.69 535> 496 20G<239 321>
VStem: 239 82<-10 89.357 416.836 516>
LayerCount: 2
Fore
SplineSet
25 241 m 1
 25 266 l 1
 25 291 l 1
 135.232421875 291 239 388.025390625 239 516 c 1
 265 516 l 1
 295 516 l 1
 321 516 l 1
 321 388.025390625 424.767578125 291 535 291 c 1
 535 266 l 1
 535 241 l 1
 535 216 l 1
 424.767578125 216 321 117.974609375 321 -10 c 1
 295 -10 l 1
 265 -10 l 1
 239 -10 l 1
 239 117.974609375 135.232421875 216 25 216 c 1
 25 241 l 1
121.582916941 253.447182983 m 1
 202.295670701 230.274787463 255.735953856 175.90488865 280.000000015 97.73523756 c 1
 304.264046094 175.904888834 357.704329596 230.274787744 438.417084109 253.447182985 c 1
 357.704329554 276.437295753 304.26404596 330.433757502 280 408.401540243 c 1
 255.735954101 330.433757692 202.295670864 276.437296071 121.582916941 253.447182983 c 1
EndSplineSet
EndChar
StartChar: F
Encoding: 70 70 78
Width: 500
Flags: HW
HStem: -182 60<76.1161 255.494> -163 62<75 201.848> 34 64<65 127.651> 641 64<350.023 406> 680 60<170.03 363.543>
VStem: 65 66<509.621 640.971> 263 64<-113.265 -29.905> 372 66<98.0838 232.895>
LayerCount: 2
Fore
SplineSet
327 -77 m 0x89c0
 327 -140.346679688 278.956054688 -182 204 -182 c 0x89c0
 158 -182 118 -176 75 -163 c 1
 75 -101 l 1
 89 -101 l 1x49c0
 130 -117 168 -122 204 -122 c 0
 243.841796875 -122 263 -102.791015625 263 -74 c 0
 263 -30.2275390625 230 -16 129 11 c 1
 130 60 l 1
 243 28 327 1 327 -77 c 0x89c0
65 569 m 3
 65 684 144 740 257 740 c 3x2bc0
 312 740 363 726 406 705 c 1
 406 641 l 1
 396 641 l 1x0dc0
 352 668 298 680 250 680 c 3
 188 680 131 653 131 572 c 3
 131 424 438 364 438 174 c 3
 438 78 388 -4 237 -4 c 3x2bc0
 180 -4 113 12 65 34 c 1
 65 98 l 1
 75 98 l 1
 132 70 199 56 247 56 c 3
 321 56 372 94 372 170 c 3
 372 318 65 379 65 569 c 3
EndSplineSet
EndChar
StartChar: G
Encoding: 71 71 79
Width: 640
Flags: HW
HStem: -182 66<333 468.75> 450 60<235.336 425.43> 580 20G<508.295 594>
VStem: 75 66<120.354 349.308> 477 66<-109.23 -21.7812> 500 66<154.524 361.688>
LayerCount: 2
Fore
SplineSet
522 600 m 5xf0
 594 600 l 5
 594 590 l 5
 207 30 l 5
 141 44 l 5
 522 600 l 5xf0
566 264 m 3xf4
 566 144 516 78 461 39 c 1
 504 27 543 -9 543 -64 c 0
 543 -138 497 -182 413 -182 c 0
 385 -182 360 -181 333 -176 c 1
 333 -116 l 1
 343 -116 l 1
 359 -120 389 -122 404 -122 c 0
 445 -122 477 -109 477 -61 c 0xf8
 477 -23 437 -6 385 0 c 1
 385 59 l 1
 448 98 500 149 500 261 c 3
 500 369 440 450 326 450 c 3
 206 450 141 366 141 240 c 3
 141 148 178 82 207 34 c 1
 207 30 l 1
 127 30 l 1
 104 74 75 148 75 239 c 3
 75 416 180 510 326 510 c 3
 480 510 566 407 566 264 c 3xf4
EndSplineSet
EndChar
StartChar: K
Encoding: 75 75 83
Width: 620
Flags: HW
HStem: 714 20G<456 522> 714 20G<456 522>
VStem: 96 66<64 476> 456 66<-4 440 453 734>
LayerCount: 2
Fore
SplineSet
513 440 m 1x0c
 181 30 l 1
 110 30 l 1
 110 43 l 1
 460 476 l 1
 513 453 l 1
 513 440 l 1x0c
522 -4 m 1xac
 456 -4 l 1
 456 734 l 1
 522 734 l 1
 522 -4 l 1xac
110 30 m 5
 96 30 l 5
 96 476 l 5
 162 476 l 21
 162 64 l 5
 110 30 l 5
EndSplineSet
EndChar
StartChar: N
Encoding: 78 78 86
Width: 570
Flags: HW
HStem: -4 60<203.315 372.248> 452 60<212.013 408.1>
VStem: 62 66<138.864 357.808> 410 66<-178 35 89.4216 442.356>
LayerCount: 2
Fore
SplineSet
269 -4 m 0
 172 -4 62 63 62 241 c 0
 62 448 195 512 300 512 c 0
 360 512 424 500 476 485 c 1
 476 -178 l 1
 410 -178 l 1
 410 35 l 1
 371 5 330 -4 269 -4 c 0
410 436 m 1
 377 448 331 452 293 452 c 0
 209 452 128 392 128 246 c 0
 128 111 207 56 276 56 c 0
 335 56 368 67 410 108 c 1
 410 436 l 1
EndSplineSet
EndChar
StartChar: S
Encoding: 83 83 90
Width: 500
Flags: HW
HStem: -4 60<214.238 417.217> 29 61<391.914 453> 448 60<203.187 332.502> 714 20G<333 399> 714 20G<333 399>
VStem: 62 66<147.656 367.816> 333 66<474 734>
LayerCount: 2
Fore
SplineSet
333 734 m 25x36
 399 734 l 1
 399 495 l 25
 333 474 l 1
 333 734 l 25x36
453 29 m 1x66
 412 8 356 -4 301 -4 c 3
 172 -4 62 73 62 253 c 3
 62 431 165 508 282 508 c 3
 338 508 381 499 399 495 c 1
 399 444 l 1
 348 444 l 1
 334 446 304 448 281 448 c 3
 195 448 128 390 128 255 c 3
 128 113 210 56 303 56 c 3xa6
 349 56 400 66 441 90 c 1
 453 90 l 1
 453 29 l 1x66
EndSplineSet
EndChar
StartChar: W
Encoding: 87 87 92
Width: 800
Flags: HW
HStem: -4 60<212.69 373.793 426.454 590.375> 450 60<212.515 369.208 432.954 583.717>
VStem: 62 66<146.581 356.678> 272 66<153.929 360.699> 462 66<153.344 360.376> 672 66<147.256 359.419>
LayerCount: 2
Fore
SplineSet
513 -4 m 3
 390 -4 272 74 272 254 c 3
 272 427 379 510 500 510 c 3
 624 510 738 437 738 257 c 3
 738 84 635 -4 513 -4 c 3
498 450 m 3
 409 450 338 381 338 256 c 3
 338 124 423 56 515 56 c 3
 605 56 672 130 672 255 c 3
 672 387 591 450 498 450 c 3
295 -4 m 3
 172 -4 62 69 62 249 c 3
 62 422 169 510 290 510 c 3
 414 510 528 442 528 262 c 3
 528 89 417 -4 295 -4 c 3
288 450 m 3
 199 450 128 376 128 251 c 3
 128 119 205 56 297 56 c 3
 387 56 462 135 462 260 c 3
 462 392 381 450 288 450 c 3
EndSplineSet
EndChar
StartChar: Z
Encoding: 90 90 95
Width: 590
Flags: HW
HStem: -4 60<146.997 338.62> 155 60<143.442 333.078> 450 60<180.106 354.897> 714 20G<113 179> 714 20G<113 179>
VStem: 67 66<72.9865 141.578> 113 66<471 734> 441 66<152.422 362.157> 449 66<-178 -81.5476> 457 66<-177.262 35.1056>
LayerCount: 2
Fore
SplineSet
449 -168 m 5xe080
 454 -147 457 -113 457 -80 c 4
 457 78 366 155 218 155 c 7
 178 155 133 142 133 110 c 7xe440
 133 65 187 56 247 56 c 7
 341 56 441 122 441 254 c 7
 441 386 369 450 262 450 c 7
 224 450 196 445 166 428 c 13
 113 428 l 5
 113 469 l 5
 148 487 207 510 264 510 c 7
 403 510 507 441 507 258 c 7xe3
 507 76 375 -4 242 -4 c 7
 151 -4 67 25 67 115 c 7
 67 183 145 215 218 215 c 7
 410 215 523 102 523 -80 c 4xe440
 523 -111 520 -150 515 -178 c 5
 449 -178 l 29
 449 -168 l 5xe080
113 734 m 25xf2
 179 734 l 25
 179 471 l 25
 113 466 l 25
 113 734 l 25xf2
EndSplineSet
EndChar
StartChar: bracketleft
Encoding: 91 91 253
Width: 400
Flags: HW
HStem: 600 50<33 267>
VStem: 123 54<280 764>
LayerCount: 2
Fore
SplineSet
143 -174 m 1
 118 -124 l 1
 347 -124 l 1
 347 -174 l 1
 143 -174 l 1
83 730 m 5
 143 730 l 5
 143 -174 l 5
 83 -174 l 5
 83 730 l 5
113 680 m 1
 143 730 l 1
 347 730 l 1
 347 680 l 1
 113 680 l 1
EndSplineSet
EndChar
StartChar: a
Encoding: 97 97 9
Width: 570
Flags: HW
HStem: -4 60<210.383 379.033> 220 60<276 437> 416 61<399.56 460> 450 60<213.984 424.182>
VStem: 62 66<144.754 361.292> 437 68<112.077 220>
LayerCount: 2
Fore
SplineSet
460 477 m 5xec
 460 416 l 5
 448 416 l 5xec
 407 440 352 450 304 450 c 7
 207 450 128 392 128 255 c 7
 128 108.6484375 211 56 295 56 c 7
 375.006835938 56 435 104 442 168 c 5
 442 220 l 5
 281 220 l 5
 281 280 l 5
 508 280 l 5
 509 260 510 211.301757812 510 183 c 7
 510 74.0087890625 411.076171875 -4 290 -4 c 7
 178 -4 62 80 62 252 c 7
 62 431 179 510 308 510 c 7xdc
 365 510 419 498 460 477 c 5xec
EndSplineSet
EndChar
StartChar: c
Encoding: 99 99 31
Width: 520
Flags: HW
HStem: -4 60<211.413 407.744> 448 60<280.854 351.093> 714 20G<68 146.715 353 419> 714 20G<68 146.715 353 419>
VStem: 62 66<146.74 360.609> 353 66<476 734>
LayerCount: 2
Fore
SplineSet
136 734 m 5xec
 473 105 l 5
 419 77 l 5
 68 724 l 5
 68 734 l 5
 136 734 l 5xec
353 734 m 25
 419 734 l 1
 419 496 l 25
 353 476 l 1
 353 734 l 25
473 47 m 1
 435 20 368 -4 290 -4 c 3
 164 -4 62 71 62 251 c 3
 62 429 181 508 303 508 c 3
 359 508 401 503 419 496 c 1
 419 443 l 1
 368 443 l 1
 352 444 325 448 302 448 c 3
 211 448 128 392 128 257 c 3
 128 121 200 56 297 56 c 3
 362 56 424 79 461 108 c 1
 473 108 l 1
 473 47 l 1
EndSplineSet
EndChar
StartChar: h
Encoding: 104 104 27
Width: 520
Flags: HW
HStem: -4 60<209.467 435.464> 442 60<142 442> 714 20G<90 156> 714 20G<90 156>
VStem: 90 66<115.422 442 502 734> 142 14<442 502>
LayerCount: 2
Fore
SplineSet
142 442 m 25xc4
 142 502 l 25
 442 502 l 25
 442 442 l 25
 142 442 l 25xc4
156 206 m 3xe8
 156 98 210.200195312 56 299 56 c 3
 355.15625 56 403.921875 59 455 69 c 1
 455 59 l 1
 435 4 l 1
 383.8828125 -4 352.8828125 -4 292 -4 c 3
 192.571289062 -4 90 30 90 206 c 0
 90 734 l 1
 156 734 l 1
 156 520 156 287 156 206 c 3xe8
EndSplineSet
EndChar
StartChar: k
Encoding: 107 107 8
Width: 620
Flags: HW
HStem: 714 20G<456 522> 714 20G<456 522>
VStem: 96 66<64 476> 456 66<-4 440 453 734>
LayerCount: 2
Fore
SplineSet
513 440 m 1x0c
 181 30 l 1
 110 30 l 1
 110 43 l 1
 460 476 l 1
 513 453 l 1
 513 440 l 1x0c
522 -4 m 5xac
 456 -4 l 5
 456 734 l 5
 522 734 l 5
 522 -4 l 5xac
110 30 m 1
 96 30 l 1
 96 476 l 1
 162 476 l 17
 162 64 l 1
 110 30 l 1
EndSplineSet
EndChar
StartChar: l
Encoding: 108 108 13
Width: 480
Flags: HW
HStem: -8 60<36.1288 235.054> 8 64<35 157.85> 220 60<312 442> 714 20G<288 354> 714 20G<288 354>
VStem: 288 66<112.325 242 280 734> 312 42<220 280>
LayerCount: 2
Fore
SplineSet
312 220 m 29x22
 312 280 l 29
 442 280 l 29
 442 220 l 29
 312 220 l 29x22
354 734 m 25xb4
 354 235 l 3
 354 72.888671875 302.048828125 -8 160 -8 c 3xb4
 113.940429688 -8 80 -3 35 8 c 1
 35 72 l 1
 45 72 l 1x64
 82 60 116.568359375 52 163 52 c 3
 241.088867188 52 288 99.8388671875 288 242 c 0
 288 734 l 25
 354 734 l 25xb4
EndSplineSet
EndChar
StartChar: m
Encoding: 109 109 6
Width: 620
Flags: HW
HStem: 0 21G<96 189.631>
VStem: 96 66<13 506> 110 52<0 13> 456 66<-178 493>
LayerCount: 2
Fore
SplineSet
512 493 m 1xb0
 176 0 l 1
 110 0 l 1
 110 13 l 1
 445 506 l 1
 512 506 l 1
 512 493 l 1xb0
522 -178 m 1
 456 -178 l 25
 456 506 l 1
 522 506 l 1
 522 -178 l 1
162 0 m 1
 96 0 l 25
 96 506 l 1
 162 506 l 25xd0
 162 0 l 1
EndSplineSet
EndChar
StartChar: o
Encoding: 111 111 2
Width: 520
Flags: HW
HStem: -4 60<217.087 407.518> 29 61<385.981 443> 418 67<371.75 441> 450 60<213.585 408.908>
VStem: 62 66<149.777 356.678>
LayerCount: 2
Fore
SplineSet
443 29 m 1x48
 402 8 356 -4 301 -4 c 3
 177 -4 62 69 62 249 c 3
 62 422 173 510 295 510 c 3x98
 351 510 395 501 441 485 c 1
 441 418 l 1
 432 418 l 1x28
 386 438 350 450 293 450 c 3
 203 450 128 376 128 251 c 3
 128 119 210 56 303 56 c 3x98
 349 56 390 66 431 90 c 1
 443 90 l 1
 443 29 l 1x48
EndSplineSet
EndChar
StartChar: q
Encoding: 113 113 68
Width: 1000
Flags: HW
HStem: 62 66<365.575 623.374>
VStem: 32 73<423.829 506> 899 69<432.297 506>
LayerCount: 2
Back
SplineSet
514 62 m 7
 730 62 921 230 968 496 c 5
 968 506 l 5
 895 506 l 5
 861 278 719 128 508 128 c 7
 297 128 135 290 101 506 c 5
 32 506 l 5
 32 496 l 5
 84 214 273 62 514 62 c 7
-128 100 m 1
 320 522 l 1
 330 522 l 1
 784 94 l 1
 784 12 l 1
 774 12 l 1
 324 438 l 1
 -118 20 l 1
 -128 20 l 1
 -128 100 l 1
327.5 181.5 m 3xa0
 121.5 181.5 -18.5 275.5 -127.5 435.5 c 1
 -127.5 540.5 l 1
 -117.5 540.5 l 1
 -24.5 372.5 123.5 247.5 334.5 247.5 c 3
 545.5 247.5 680.5 388.5 774.5 544.5 c 1
 784.5 544.5 l 1
 784.5 444.5 l 1
 692.5 320.5 558.5 181.5 327.5 181.5 c 3xa0
EndSplineSet
Fore
SplineSet
486 62 m 3
 270 62 79 230 32 496 c 1
 32 506 l 1
 105 506 l 1
 143 298 281 128 492 128 c 3
 703 128 851 264 899 506 c 1
 968 506 l 1
 968 496 l 1
 916 214 727 62 486 62 c 3
40 -168 m 1
 474 363 l 1
 504 363 l 1
 960 -168 l 1
 960 -178 l 1
 873 -178 l 1
 488 269 l 1
 126 -178 l 1
 40 -178 l 1
 40 -168 l 1
EndSplineSet
EndChar
StartChar: s
Encoding: 115 115 19
Width: 500
Flags: HW
HStem: -4 60<214.238 417.217> 29 61<391.914 453> 448 60<203.187 332.502> 714 20G<333 399> 714 20G<333 399>
VStem: 62 66<147.656 367.816> 333 66<474 734>
LayerCount: 2
Back
SplineSet
333 734 m 29
 399 734 l 29
 399 474 l 29
 333 474 l 29
 333 734 l 29
453 29 m 5x48
 412 8 356 -4 301 -4 c 7
 172 -4 62 73 62 253 c 7
 62 431 165 508 282 508 c 7x98
 338 508 381 499 399 495 c 5
 399 444 l 5
 348 444 l 5
 334 446 304 448 281 448 c 7
 195 448 128 390 128 255 c 7
 128 113 210 56 303 56 c 7x98
 349 56 400 66 441 90 c 5
 453 90 l 5
 453 29 l 5x48
EndSplineSet
Fore
SplineSet
333 734 m 25x36
 399 734 l 1
 399 495 l 25
 333 474 l 1
 333 734 l 25x36
453 29 m 1x66
 412 8 356 -4 301 -4 c 3
 172 -4 62 73 62 253 c 3
 62 431 165 508 282 508 c 3
 338 508 381 499 399 495 c 1
 399 444 l 1
 348 444 l 1
 334 446 304 448 281 448 c 3
 195 448 128 390 128 255 c 3
 128 113 210 56 303 56 c 3xa6
 349 56 400 66 441 90 c 1
 453 90 l 1
 453 29 l 1x66
EndSplineSet
EndChar
StartChar: w
Encoding: 119 119 5
Width: 800
Flags: HW
HStem: -4 60<212.69 373.793 426.454 590.375> 450 60<212.515 369.208 432.954 583.717>
VStem: 62 66<146.581 356.678> 272 66<153.929 360.699> 462 66<153.344 360.376> 672 66<147.256 359.419>
LayerCount: 2
Back
SplineSet
538 -4 m 7
 425 -4 322 69 322 249 c 7
 322 422 413 510 524 510 c 7
 638 510 738 432 738 252 c 7
 738 79 650 -4 538 -4 c 7
522 450 m 7
 440 450 388 376 388 251 c 7
 388 119 455 56 540 56 c 7
 623 56 672 125 672 250 c 7
 672 382 608 450 522 450 c 7
392.365234375 64.2705078125 m 5
 356.860351562 19.30078125 306.06640625 -4 245 -4 c 7
 122 -4 62 89 62 259 c 7
 62 338.172851562 73.384765625 436.888671875 91.982421875 506 c 5
 157.084960938 506 l 5
 157.084960938 496 l 5
 141.36328125 434.901367188 128 324.04296875 128 267 c 7
 128 135 155 56 247 56 c 7
 293.412109375 56 327.857421875 77.0087890625 350.334960938 114.501953125 c 5
 392.365234375 64.2705078125 l 5
EndSplineSet
Fore
SplineSet
538 -4 m 3xcc
 457 -4 382 33 345 120 c 1
 345 411 l 1
 389 472 450 510 524 510 c 3
 638 510 738 432 738 252 c 3
 738 79 650 -4 538 -4 c 3xcc
522 450 m 3
 470 450 436 424 411 387 c 1
 411 138 l 1
 438 83 485 56 540 56 c 3
 623 56 672 125 672 250 c 3
 672 382 608 450 522 450 c 3
387 69 m 1
 353 21 316 -4 245 -4 c 3
 122 -4 62 89 62 259 c 3xec
 62 338 73 437 92 506 c 1
 157 506 l 1
 157 496 l 1xdc
 141 435 128 324 128 267 c 3xec
 128 135 155 56 247 56 c 3
 293 56 326 78 345 120 c 1
 387 69 l 1
EndSplineSet
EndChar
StartChar: asciitilde
Encoding: 126 126 239
Width: 540
Flags: HW
LayerCount: 2
Fore
SplineSet
160 271 m 5
 94 271 l 5
 94 281 l 5
 94 341.498046875 124.987304688 406 198 406 c 4
 285.002929688 406 277.875 336 333 336 c 4
 373.127929688 336 380 383.139648438 380 414 c 5
 446 414 l 5
 446 404 l 5
 446 333.952148438 413.749023438 276 337 276 c 4
 255.211914062 276 257.313476562 346 201 346 c 4
 170.159179688 346 160 298.70703125 160 271 c 5
EndSplineSet
EndChar
StartChar: questiondown
Encoding: 191 191 248
Width: 522
Flags: HW
HStem: -4 50<181.746 286.911> 189 50<12 150 194 285.328>
VStem: 112 54<61.1364 187.963> 304 56<62.8183 170.784>
LayerCount: 2
Back
SplineSet
156 605 m 7
 115 605 88 577 88 535 c 4
 88 489 120 462 160 462 c 6
 380 462 l 5
 380 412 l 5
 161 412 l 6
 80 412 32 464 32 535 c 4
 32 596 72 655 153 655 c 7
 232 655 280 604 280 538 c 4
 280 481 250 443 232 425 c 6
 229 422 l 5
 178 449 l 5
 196 457 226 495 226 538 c 4
 226 574 205 605 156 605 c 7
244 46 m 7
 285 46 312 74 312 116 c 4
 312 162 280 189 240 189 c 6
 20 189 l 5
 20 239 l 5
 239 239 l 6
 320 239 368 187 368 116 c 4
 368 55 328 -4 247 -4 c 7
 168 -4 120 47 120 113 c 4
 120 170 150 208 168 226 c 6
 171 229 l 5
 222 202 l 5
 204 194 174 156 174 113 c 4
 174 77 195 46 244 46 c 7
EndSplineSet
Fore
SplineSet
198 239 m 1xf3
 198 189 l 1
 34 189 l 1
 34 239 l 1
 198 239 l 1xf3
286 605 m 3
 245 605 218 577 218 535 c 0
 218 489 250 462 290 462 c 2
 460 462 l 1
 460 412 l 1
 291 412 l 2
 210 412 162 464 162 535 c 0xf9
 162 596 202 655 283 655 c 3
 362 655 410 604 410 538 c 0
 410 481 380 443 362 425 c 2
 359 422 l 1
 308 449 l 1
 326 457 356 495 356 538 c 0
 356 574 335 605 286 605 c 3
99 -174 m 1
 99 -114 l 1
 134.583007812 -114 165 -64.0380859375 165 -26 c 2
 165 336 l 2
 165 394.86685971 193.685757833 438.657722938 243.428184393 454.999998949 c 1
 291 422 l 1
 291 412 l 1
 244 412 231 379.897460938 231 336 c 2
 231 -26 l 2xf5
 231 -61.00390625 218.923828125 -95.7236328125 196.715820312 -114 c 1
 432 -114 l 1
 432 -174 l 1
 99 -174 l 1
EndSplineSet
EndChar
StartChar: Agrave
Encoding: 192 192 211
Width: 570
Flags: HW
HStem: -4 60<210.383 379.033> 220 60<276 437> 416 61<399.56 460> 450 60<213.984 424.182> 586 21G<182 247.5>
VStem: 62 66<144.754 361.292> 437 68<112.077 220>
LayerCount: 2
Fore
SplineSet
162 746 m 5xce
 162 766 l 5
 243 766 l 5
 385 596 l 5
 385 586 l 5
 342 586 l 5
 162 746 l 5xce
460 477 m 1xee
 460 416 l 1
 448 416 l 1xee
 407 440 352 450 304 450 c 3
 207 450 128 392 128 255 c 3
 128 108.6484375 211 56 295 56 c 3
 375.006835938 56 435 104 442 168 c 1
 442 220 l 1
 281 220 l 1
 281 280 l 1
 508 280 l 1
 509 260 510 211.301757812 510 183 c 3
 510 74.0087890625 411.076171875 -4 290 -4 c 3
 178 -4 62 80 62 252 c 3
 62 431 179 510 308 510 c 3xde
 365 510 419 498 460 477 c 1xee
EndSplineSet
EndChar
StartChar: Eacute
Encoding: 201 201 99
Width: 560
Flags: HW
HStem: 216 75<25 114.31 445.69 535> 496 20G<239 321> 586 21G<182 247.5>
VStem: 239 82<-10 89.357 416.836 516>
LayerCount: 2
Fore
SplineSet
405 746 m 1
 225 586 l 1
 182 586 l 1
 182 596 l 1
 324 766 l 1
 405 766 l 1
 405 746 l 1
25 241 m 1
 25 266 l 1
 25 291 l 1
 135.232421875 291 239 388.025390625 239 516 c 1
 265 516 l 1
 295 516 l 1
 321 516 l 1
 321 388.025390625 424.767578125 291 535 291 c 1
 535 266 l 1
 535 241 l 1
 535 216 l 1
 424.767578125 216 321 117.974609375 321 -10 c 1
 295 -10 l 1
 265 -10 l 1
 239 -10 l 1
 239 117.974609375 135.232421875 216 25 216 c 1
 25 241 l 1
121.583007812 253.447265625 m 1
 202.295898438 230.274414062 255.736328125 175.905273438 280 97.7353515625 c 1
 304.263671875 175.905273438 357.704101562 230.274414062 438.416992188 253.447265625 c 1
 357.704101562 276.4375 304.263671875 330.43359375 280 408.401367188 c 1
 255.736328125 330.43359375 202.295898438 276.4375 121.583007812 253.447265625 c 1
EndSplineSet
EndChar
StartChar: Edieresis
Encoding: 203 203 101
Width: 560
Flags: HW
HStem: 216 75<25 114.31 445.69 535> 496 20G<239 321> 596 78<157 216 344 403> 620 21G<194.518 226.432 333.237 365.482>
VStem: 157 76<596 641.558> 239 82<-10 89.357 416.836 516> 327 76<596 641.558>
CounterMasks: 1 1c
LayerCount: 2
Fore
SplineSet
327 674 m 29xee
 403 674 l 29
 403 596 l 29
 327 596 l 29
 327 674 l 29xee
157 674 m 29
 233 674 l 29
 233 596 l 29
 157 596 l 29
 157 674 l 29
279 740.786132812 m 5
 216 620 l 5
 192.844726562 641.557617188 l 5
 258 764 l 5
 300 764 l 5
 367.155273438 641.557617188 l 5
 344 620 l 5xde
 279 740.786132812 l 5
25 241 m 1
 25 266 l 1
 25 291 l 1
 135.232421875 291 239 388.025390625 239 516 c 1
 265 516 l 1
 295 516 l 1
 321 516 l 1
 321 388.025390625 424.767578125 291 535 291 c 1
 535 266 l 1
 535 241 l 1
 535 216 l 1
 424.767578125 216 321 117.974609375 321 -10 c 1
 295 -10 l 1
 265 -10 l 1
 239 -10 l 1
 239 117.974609375 135.232421875 216 25 216 c 1
 25 241 l 1
121.582916941 253.447182983 m 1
 202.295670701 230.274787463 255.735953856 175.90488865 280.000000015 97.73523756 c 1
 304.264046094 175.904888834 357.704329596 230.274787744 438.417084109 253.447182985 c 1
 357.704329554 276.437295753 304.26404596 330.433757502 280 408.401540243 c 1
 255.735954101 330.433757692 202.295670864 276.437296071 121.582916941 253.447182983 c 1
EndSplineSet
EndChar
StartChar: Otilde
Encoding: 213 213 132
Width: 520
Flags: HW
HStem: -4 60<217.087 407.518> 29 61<385.981 443> 418 67<371.75 441> 450 60<213.585 408.908>
VStem: 62 66<149.777 356.678>
LayerCount: 2
Fore
SplineSet
277 541 m 7x0f80
 196 541 148 593 148 664 c 4
 148 725 191 784 269 784 c 7
 350 784 398 732 398 661 c 4
 398 600 355 541 277 541 c 7x0f80
272 734 m 7
 231 734 204 706 204 664 c 4
 204 618 236 591 276 591 c 7
 317 591 344 619 344 661 c 4
 344 707 312 734 272 734 c 7
443 29 m 1x4f80
 402 8 356 -4 301 -4 c 3
 177 -4 62 69 62 249 c 3
 62 422 173 510 295 510 c 3x9f80
 351 510 395 501 441 485 c 1
 441 418 l 1
 432 418 l 1x2f80
 386 438 350 450 293 450 c 3
 203 450 128 376 128 251 c 3
 128 119 210 56 303 56 c 3x9f80
 349 56 390 66 431 90 c 1
 443 90 l 1
 443 29 l 1x4f80
EndSplineSet
EndChar
StartChar: Udieresis
Encoding: 220 220 107
Width: 590
Flags: HW
HStem: -4 60<215.907 377.084> 450 60<212.515 373.717> 596 78<168 227 355 414> 620 21G<205.518 237.432 344.237 376.482>
VStem: 62 66<146.581 356.678> 168 76<596 641.558> 338 76<596 641.558> 462 66<149.322 359.419>
LayerCount: 2
Fore
SplineSet
338 674 m 29xef
 414 674 l 29
 414 596 l 29
 338 596 l 29
 338 674 l 29xef
168 674 m 29
 244 674 l 29
 244 596 l 29
 168 596 l 29
 168 674 l 29
290 740.786132812 m 5
 227 620 l 5
 203.844726562 641.557617188 l 5
 269 764 l 5
 311 764 l 5
 378.155273438 641.557617188 l 5
 355 620 l 5xdf
 290 740.786132812 l 5
299 -4 m 3
 176 -4 62 69 62 249 c 3
 62 422 169 510 290 510 c 3
 414 510 528 437 528 257 c 3
 528 84 421 -4 299 -4 c 3
288 450 m 3
 199 450 128 376 128 251 c 3
 128 119 209 56 301 56 c 3
 391 56 462 130 462 255 c 3
 462 387 381 450 288 450 c 3
EndSplineSet
EndChar
StartChar: Thorn
Encoding: 222 222 108
Width: 500
Flags: HW
HStem: -2 60<167.498 296.813> 416 61<47 108.086> 450 60<82.7827 285.762>
VStem: 372 66<138.184 358.344>
LayerCount: 2
Fore
SplineSet
167 -178 m 29x90
 101 -178 l 1
 101 11 l 25
 167 32 l 1
 167 -178 l 29x90
47 477 m 1xd0
 88 498 144 510 199 510 c 3
 328 510 438 433 438 253 c 3
 438 75 335 -2 218 -2 c 3
 162 -2 119 7 101 11 c 1
 101 62 l 1
 152 62 l 1
 166 60 196 58 219 58 c 3
 305 58 372 116 372 251 c 3
 372 393 290 450 197 450 c 3xb0
 151 450 100 440 59 416 c 1
 47 416 l 1
 47 477 l 1xd0
EndSplineSet
EndChar
StartChar: aacute
Encoding: 225 225 42
Width: 570
Flags: HW
HStem: -4 60<210.383 379.033> 220 60<276 437> 416 61<399.56 460> 450 60<213.984 424.182> 586 21G<182 247.5>
VStem: 62 66<144.754 361.292> 437 68<112.077 220>
LayerCount: 2
Fore
SplineSet
405 746 m 1xce
 225 586 l 1
 182 586 l 1
 182 596 l 1
 324 766 l 1
 405 766 l 1
 405 746 l 1xce
460 477 m 1xee
 460 416 l 1
 448 416 l 1xee
 407 440 352 450 304 450 c 3
 207 450 128 392 128 255 c 3
 128 108.6484375 211 56 295 56 c 3
 375.006835938 56 435 104 442 168 c 5
 442 220 l 5
 281 220 l 5
 281 280 l 5
 508 280 l 5
 509 260 510 211.301757812 510 183 c 7
 510 74.0087890625 411.076171875 -4 290 -4 c 3
 178 -4 62 80 62 252 c 3
 62 431 179 510 308 510 c 3xde
 365 510 419 498 460 477 c 1xee
EndSplineSet
EndChar
StartChar: ecircumflex
Encoding: 234 234 18
Width: 580
Flags: HW
HStem: -4 62<366.496 498.892> 220 60<159.875 504> 446 60<150.148 257.859>
VStem: 62 66<309.151 424.164> 279 66<80.5109 424.28>
LayerCount: 2
Back
SplineSet
432 -0.8935546875 m 5
 414.87890625 -3.568359375 409.828125 -4 386 -4 c 7
 312 -4 246 49 246 154 c 6
 246 442 l 5
 45 444 l 5
 45 502 l 5
 312 502 l 5
 312 160 l 6
 312 79 360.376953125 59 403 59 c 7
 418.893554688 59 430.220703125 59.328125 443 62.5322265625 c 5
 443 52.5322265625 l 29
 432 -0.8935546875 l 5
EndSplineSet
Fore
SplineSet
128 366 m 0
 128 309 175 280 231 280 c 2
 504 280 l 1
 504 220 l 1
 223 220 l 2
 133 220 62 273 62 363 c 0
 62 446 121 506 204 506 c 0
 301 506 345 448 345 354 c 2
 345 164 l 2
 345 73 380 58 433 58 c 0
 466 58 490 62 509 69 c 1
 509 59 l 1
 498 3 l 1
 479 -2 457 -4 432 -4 c 0
 342 -4 279 29 279 154 c 2
 279 349 l 2
 279 408 259 446 207 446 c 0
 161 446 128 416 128 366 c 0
EndSplineSet
EndChar
StartChar: iacute
Encoding: 237 237 15
Width: 470
Flags: HW
HStem: -4 63<329.546 422> 442 60<35 236> 586 21G<192 257.5>
VStem: 236 66<88.7541 442>
LayerCount: 2
Fore
SplineSet
422 -0.8935546875 m 1
 404.87890625 -3.568359375 399.828125 -4 376 -4 c 3
 302 -4 236 49 236 154 c 2
 236 442 l 1
 35 444 l 1
 35 502 l 1
 302 502 l 1
 302 160 l 2
 302 79 350.376953125 59 393 59 c 3
 408.893554688 59 420.220703125 59.328125 433 62.5322265625 c 1
 433 52.5322265625 l 25
 422 -0.8935546875 l 1
415 746 m 5
 235 586 l 5
 192 586 l 5
 192 596 l 5
 334 766 l 5
 415 766 l 5
 415 746 l 5
EndSplineSet
EndChar
StartChar: eth
Encoding: 240 240 40
Width: 598
Flags: HW
HStem: 714 20G<66 251 487.161 587> 714 20G<66 251 487.161 587>
VStem: 359 66<138.235 415.99>
LayerCount: 2
Back
SplineSet
620 734 m 5
 106 254 l 29
 600 -212 l 1029
70 760 m 21
 262 692 422 485.779296875 422 264 c 7
 422 27.2646484375 216 -150 66 -208 c 1037
EndSplineSet
Fore
SplineSet
425 279 m 7xa0
 425 48 286 -86 162 -178 c 5
 62 -178 l 5
 62 -168 l 5
 218 -74 359 61 359 272 c 7
 359 483 234 631 66 724 c 5
 66 734 l 5
 171 734 l 5
 331 625 425 485 425 279 c 7xa0
506 734 m 1
 587 734 l 1
 587 724 l 1
 168 283 l 1
 595 -168 l 1
 595 -178 l 1
 513 -178 l 1
 84 276 l 1
 84 286 l 1
 506 734 l 1
EndSplineSet
EndChar
StartChar: ocircumflex
Encoding: 244 244 134
Width: 520
Flags: HW
HStem: -4 60<217.087 407.518> 29 61<385.981 443> 418 67<371.75 441> 450 60<213.585 408.908>
VStem: 62 66<149.777 356.678>
LayerCount: 2
Fore
SplineSet
443 29 m 1x48a0
 402 8 356 -4 301 -4 c 3
 177 -4 62 69 62 249 c 3
 62 422 173 510 295 510 c 3x98a0
 351 510 395 501 441 485 c 1
 441 418 l 1
 432 418 l 1x28a0
 386 438 350 450 293 450 c 3
 203 450 128 376 128 251 c 3
 128 119 210 56 303 56 c 3x98a0
 349 56 390 66 431 90 c 1
 443 90 l 1
 443 29 l 1x48a0
159 591 m 1x0c60
 93 591 l 1
 93 601 l 1
 93 661.498046875 123.987304688 726 197 726 c 0x0c60
 284.002929688 726 276.875 656 332 656 c 0
 372.127929688 656 379 703.139648438 379 734 c 1
 445 734 l 1x0a60
 445 724 l 1
 445 653.952148438 412.749023438 596 336 596 c 0
 254.211914062 596 256.313476562 666 200 666 c 0
 169.159179688 666 159 618.70703125 159 591 c 1x0c60
EndSplineSet
EndChar
StartChar: amacron
Encoding: 257 257 128
Width: 570
Flags: HW
HStem: -4 60<210.383 379.033> 220 60<276 437> 416 61<399.56 460> 450 60<213.984 424.182>
VStem: 62 66<144.754 361.292> 437 68<112.077 220>
LayerCount: 2
Fore
SplineSet
286 573 m 7xcb28
 197 573 183 633 183 656 c 5xcba8
 217 660 l 5
 217 629 229 603 286 603 c 7
 343 603 355 629 355 660 c 5xcd58
 389 656 l 5
 389 633 375 573 286 573 c 7xcb28
259 656 m 5
 183 656 l 5
 183 734 l 5
 259 734 l 5
 259 656 l 5
389 656 m 5
 313 656 l 5
 313 734 l 5
 389 734 l 5
 389 656 l 5
460 477 m 1xe908
 460 416 l 1
 448 416 l 1xe908
 407 440 352 450 304 450 c 3
 207 450 128 392 128 255 c 3
 128 108.6484375 211 56 295 56 c 3
 375.006835938 56 435 104 442 168 c 1
 442 220 l 1
 281 220 l 1
 281 280 l 1
 508 280 l 1
 509 260 510 211.301757812 510 183 c 3
 510 74.0087890625 411.076171875 -4 290 -4 c 3
 178 -4 62 80 62 252 c 3
 62 431 179 510 308 510 c 3xd908
 365 510 419 498 460 477 c 1xe908
EndSplineSet
EndChar
StartChar: ccaron
Encoding: 269 269 39
Width: 520
Flags: HW
HStem: -208 78<217 259 313 355> -77 30<232.234 339.766> -4 60<211.413 407.744> 448 60<280.854 351.093> 714 20G<68 146.715 353 419> 714 20G<68 146.715 353 419>
VStem: 62 66<146.74 360.609> 183 76<-208 -130> 183 34<-134 -91.8913> 313 76<-208 -130> 353 66<476 734> 355 34<-134 -91.8913>
LayerCount: 2
Fore
SplineSet
286 -47 m 7xf3
 375 -47 389 -107 389 -130 c 5xf340
 355 -134 l 5
 355 -103 343 -77 286 -77 c 7
 229 -77 217 -103 217 -134 c 5xf290
 183 -130 l 5
 183 -107 197 -47 286 -47 c 7xf3
313 -130 m 29
 389 -130 l 29
 389 -208 l 29
 313 -208 l 29
 313 -130 l 29
183 -130 m 29
 259 -130 l 29
 259 -208 l 29
 183 -208 l 29
 183 -130 l 29
136 734 m 1xfa20
 473 105 l 1
 419 77 l 1
 68 724 l 1
 68 734 l 1
 136 734 l 1xfa20
353 734 m 25
 419 734 l 1
 419 496 l 25
 353 476 l 1
 353 734 l 25
473 47 m 1
 435 20 368 -4 290 -4 c 3
 164 -4 62 71 62 251 c 3
 62 429 181 508 303 508 c 3
 359 508 401 503 419 496 c 1
 419 443 l 1
 368 443 l 1
 352 444 325 448 302 448 c 3
 211 448 128 392 128 257 c 3
 128 121 200 56 297 56 c 3
 362 56 424 79 461 108 c 1
 473 108 l 1
 473 47 l 1
EndSplineSet
EndChar
StartChar: emacron
Encoding: 275 275 130
Width: 580
Flags: HW
HStem: -4 62<366.496 498.892> 220 60<159.875 504> 446 60<150.148 257.859>
VStem: 62 66<309.151 424.164> 279 66<80.5109 424.28>
LayerCount: 2
Fore
SplineSet
266 573 m 7xf620
 177 573 163 633 163 656 c 5xf720
 197 660 l 5
 197 629 209 603 266 603 c 7
 323 603 335 629 335 660 c 5xfa90
 369 656 l 5
 369 633 355 573 266 573 c 7xf620
239 656 m 5
 163 656 l 5
 163 734 l 5
 239 734 l 5
 239 656 l 5
369 656 m 5
 293 656 l 5
 293 734 l 5
 369 734 l 5
 369 656 l 5
128 366 m 0
 128 309 175 280 231 280 c 2
 504 280 l 1
 504 220 l 1
 223 220 l 2
 133 220 62 273 62 363 c 0
 62 446 121 506 204 506 c 0
 301 506 345 448 345 354 c 2
 345 164 l 2
 345 73 380 58 433 58 c 0
 466 58 490 62 509 69 c 1
 509 59 l 1
 498 3 l 1
 479 -2 457 -4 432 -4 c 0
 342 -4 279 29 279 154 c 2
 279 349 l 2xf240
 279 408 259 446 207 446 c 0
 161 446 128 416 128 366 c 0
EndSplineSet
EndChar
StartChar: Lcaron
Encoding: 317 317 223
Width: 480
Flags: HW
HStem: -8 60<36.1288 235.054> 8 64<35 157.85> 220 60<312 442> 714 20G<288 354> 714 20G<288 354>
VStem: 288 66<112.325 242 280 734> 312 42<220 280>
LayerCount: 2
Fore
SplineSet
246 -47 m 7xc9
 335 -47 349 -107 349 -130 c 5
 315 -134 l 5
 315 -103 303 -77 246 -77 c 7
 189 -77 177 -103 177 -134 c 5xc8c0
 143 -130 l 5
 143 -107 157 -47 246 -47 c 7xc9
273 -130 m 29
 349 -130 l 29
 349 -208 l 29
 273 -208 l 29
 273 -130 l 29
143 -130 m 29xc9
 219 -130 l 29
 219 -208 l 29
 143 -208 l 29
 143 -130 l 29xc9
312 220 m 25xc810
 312 280 l 25
 442 280 l 25
 442 220 l 25
 312 220 l 25xc810
354 734 m 25xec20
 354 235 l 3
 354 72.888671875 302.048828125 -8 160 -8 c 3xec20
 113.940429688 -8 80 -3 35 8 c 1
 35 72 l 1
 45 72 l 1xd820
 82 60 116.568359375 52 163 52 c 3
 241.088867188 52 288 99.8388671875 288 242 c 0
 288 734 l 25
 354 734 l 25xec20
EndSplineSet
EndChar
StartChar: oe
Encoding: 339 339 123
Width: 550
Flags: HW
HStem: -4 60<217.087 407.518> 29 61<385.981 443> 418 67<371.75 441> 450 60<213.585 408.908>
VStem: 62 66<149.777 356.678>
LayerCount: 2
Fore
SplineSet
147 258 m 5x26
 268 271 291 295 305 413 c 5
 315 413 l 5
 329 295 352 271 473 258 c 5
 473 248 l 5
 352 235 329 211 315 93 c 5
 305 93 l 5
 291 211 268 235 147 248 c 5
 147 258 l 5x26
463 29 m 1x66
 422 8 366 -4 311 -4 c 3
 187 -4 62 65 62 249 c 3
 62 427 183 510 305 510 c 3xae
 361 510 415 501 461 485 c 1
 461 418 l 1
 452 418 l 1x36
 406 438 360 450 303 450 c 3
 213 450 128 391 128 251 c 3
 128 114 220 56 313 56 c 3xae
 359 56 410 66 451 90 c 1
 463 90 l 1
 463 29 l 1x66
EndSplineSet
EndChar
StartChar: tcaron
Encoding: 357 357 226
Width: 466
Flags: HW
HStem: 0 21G<169 235> 662 21G<8 451> 679 43G<8 451>
VStem: 169 66<0 376.808>
LayerCount: 2
Fore
SplineSet
216 -47 m 7xc8
 305 -47 319 -107 319 -130 c 5xc9
 285 -134 l 5
 285 -103 273 -77 216 -77 c 7
 159 -77 147 -103 147 -134 c 5xc480
 113 -130 l 5
 113 -107 127 -47 216 -47 c 7xc8
243 -130 m 29
 319 -130 l 29
 319 -208 l 29
 243 -208 l 29
 243 -130 l 29
113 -130 m 29
 189 -130 l 29
 189 -208 l 29
 113 -208 l 29
 113 -130 l 29
451 699 m 1
 451 629 l 1
 274 519 235 386 235 154 c 2
 235 0 l 1
 169 0 l 1
 169 164 l 2xc2
 169 406 206 562 451 699 c 1
8 662 m 1xe0
 8 722 l 1
 451 722 l 1xd0
 451 662 l 1
 8 662 l 1xe0
EndSplineSet
EndChar
StartChar: Umacron
Encoding: 362 362 137
Width: 590
Flags: HW
HStem: -4 60<215.907 377.084> 450 60<212.515 373.717>
VStem: 62 66<146.581 356.678> 462 66<149.322 359.419>
LayerCount: 2
Fore
SplineSet
289 573 m 3xeca0
 200 573 186 633 186 656 c 1xeea0
 220 660 l 1
 220 629 232 603 289 603 c 3
 346 603 358 629 358 660 c 1xf560
 392 656 l 1
 392 633 378 573 289 573 c 3xeca0
262 656 m 1
 186 656 l 1
 186 734 l 1
 262 734 l 1
 262 656 l 1
392 656 m 1
 316 656 l 1
 316 734 l 1
 392 734 l 1
 392 656 l 1
299 -4 m 3
 176 -4 62 69 62 249 c 3
 62 422 169 510 290 510 c 3
 414 510 528 437 528 257 c 3
 528 84 421 -4 299 -4 c 3
288 450 m 3
 199 450 128 376 128 251 c 3
 128 119 209 56 301 56 c 3
 391 56 462 130 462 255 c 3
 462 387 381 450 288 450 c 3
EndSplineSet
EndChar
StartChar: umacron
Encoding: 363 363 138
Width: 590
Flags: HW
HStem: -4 60<215.907 377.084> 450 60<212.515 373.717>
VStem: 62 66<146.581 356.678> 462 66<149.322 359.419>
LayerCount: 2
Fore
SplineSet
289 573 m 7xeca0
 200 573 186 633 186 656 c 5xeea0
 220 660 l 5
 220 629 232 603 289 603 c 7
 346 603 358 629 358 660 c 5xf560
 392 656 l 5
 392 633 378 573 289 573 c 7xeca0
262 656 m 5
 186 656 l 5
 186 734 l 5
 262 734 l 5
 262 656 l 5
392 656 m 5
 316 656 l 5
 316 734 l 5
 392 734 l 5
 392 656 l 5
299 -4 m 3
 176 -4 62 69 62 249 c 3
 62 422 169 510 290 510 c 3
 414 510 528 437 528 257 c 3
 528 84 421 -4 299 -4 c 3
288 450 m 3
 199 450 128 376 128 251 c 3
 128 119 209 56 301 56 c 3
 391 56 462 130 462 255 c 3
 462 387 381 450 288 450 c 3
EndSplineSet
EndChar
StartChar: Zcaron
Encoding: 381 381 227
Width: 590
Flags: HW
HStem: -4 60<146.997 338.62> 155 60<143.442 333.078> 450 60<180.106 354.897> 714 20G<113 179> 714 20G<113 179>
VStem: 67 66<72.9865 141.578> 113 66<471 734> 441 66<152.422 362.157> 449 66<-178 -81.5476> 457 66<-177.262 35.1056>
LayerCount: 2
Fore
SplineSet
246 -47 m 7xf840
 335 -47 349 -107 349 -130 c 5xf850
 315 -134 l 5
 315 -103 303 -77 246 -77 c 7
 189 -77 177 -103 177 -134 c 5xf828
 143 -130 l 5
 143 -107 157 -47 246 -47 c 7xf840
273 -130 m 29
 349 -130 l 29
 349 -208 l 29
 273 -208 l 29
 273 -130 l 29
143 -130 m 29
 219 -130 l 29
 219 -208 l 29
 143 -208 l 29
 143 -130 l 29
449 -168 m 1xf802
 454 -147 457 -113 457 -80 c 0
 457 78 366 155 218 155 c 3
 178 155 133 142 133 110 c 3xf901
 133 65 187 56 247 56 c 3
 341 56 441 122 441 254 c 3
 441 386 369 450 262 450 c 3
 224 450 196 445 166 428 c 9
 113 428 l 1
 113 469 l 1
 148 487 207 510 264 510 c 3
 403 510 507 441 507 258 c 3xf884
 507 76 375 -4 242 -4 c 3
 151 -4 67 25 67 115 c 3
 67 183 145 215 218 215 c 3
 410 215 523 102 523 -80 c 0xf901
 523 -111 520 -150 515 -178 c 1
 449 -178 l 25
 449 -168 l 1xf802
113 734 m 25xfc80
 179 734 l 25
 179 471 l 25
 113 466 l 25
 113 734 l 25xfc80
EndSplineSet
EndChar
StartChar: uni0201
Encoding: 513 513 232
Width: 570
Flags: HW
HStem: -4 60<210.383 379.033> 220 60<276 437> 416 61<399.56 460> 450 60<213.984 424.182> 586 21G<182 247.5>
VStem: 62 66<144.754 361.292> 437 68<112.077 220>
LayerCount: 2
Fore
SplineSet
262 746 m 5xce
 262 766 l 5
 343 766 l 5
 485 596 l 5
 485 586 l 5
 442 586 l 5
 262 746 l 5xce
82 746 m 5
 82 766 l 5
 163 766 l 5
 305 596 l 5
 305 586 l 5
 262 586 l 5
 82 746 l 5
460 477 m 1xee
 460 416 l 1
 448 416 l 1xee
 407 440 352 450 304 450 c 3
 207 450 128 392 128 255 c 3
 128 108.6484375 211 56 295 56 c 3
 375.006835938 56 435 104 442 168 c 1
 442 220 l 1
 281 220 l 1
 281 280 l 1
 508 280 l 1
 509 260 510 211.301757812 510 183 c 3
 510 74.0087890625 411.076171875 -4 290 -4 c 3
 178 -4 62 80 62 252 c 3
 62 431 179 510 308 510 c 3xde
 365 510 419 498 460 477 c 1xee
EndSplineSet
EndChar
StartChar: uni020E
Encoding: 526 526 233
Width: 520
Flags: HW
HStem: -4 60<217.087 407.518> 29 61<385.981 443> 418 67<371.75 441> 450 60<213.585 408.908>
VStem: 62 66<149.777 356.678>
LayerCount: 2
Fore
SplineSet
202 746 m 5x0c
 202 766 l 5
 283 766 l 5
 425 596 l 5
 425 586 l 5
 382 586 l 5
 202 746 l 5x0c
52 746 m 5
 52 766 l 5
 133 766 l 5
 275 596 l 5
 275 586 l 5
 232 586 l 5
 52 746 l 5
443 29 m 1x4c
 402 8 356 -4 301 -4 c 3
 177 -4 62 69 62 249 c 3
 62 422 173 510 295 510 c 3x9c
 351 510 395 501 441 485 c 1
 441 418 l 1
 432 418 l 1x2c
 386 438 350 450 293 450 c 3
 203 450 128 376 128 251 c 3
 128 119 210 56 303 56 c 3x9c
 349 56 390 66 431 90 c 1
 443 90 l 1
 443 29 l 1x4c
EndSplineSet
EndChar
StartChar: uni0214
Encoding: 532 532 270
Width: 590
Flags: HW
HStem: -4 60<215.907 377.084> 450 60<212.515 373.717>
VStem: 62 66<146.581 356.678> 462 66<149.322 359.419>
LayerCount: 2
Fore
SplineSet
232 746 m 5
 232 766 l 5
 313 766 l 5
 455 596 l 5
 455 586 l 5
 412 586 l 5
 232 746 l 5
52 746 m 5
 52 766 l 5
 133 766 l 5
 275 596 l 5
 275 586 l 5
 232 586 l 5
 52 746 l 5
299 -4 m 3
 176 -4 62 69 62 249 c 3
 62 422 169 510 290 510 c 3
 414 510 528 437 528 257 c 3
 528 84 421 -4 299 -4 c 3
288 450 m 3
 199 450 128 376 128 251 c 3
 128 119 209 56 301 56 c 3
 391 56 462 130 462 255 c 3
 462 387 381 450 288 450 c 3
EndSplineSet
EndChar
StartChar: acutecomb
Encoding: 769 769 57
Width: 0
Flags: HW
HStem: 572 180
VStem: -270 223
LayerCount: 2
Fore
SplineSet
-47 732 m 5
 -227 572 l 5
 -270 572 l 5
 -270 582 l 5
 -128 752 l 5
 -47 752 l 5
 -47 732 l 5
EndSplineSet
EndChar
StartChar: uni030C
Encoding: 780 780 59
Width: 0
Flags: HW
HStem: 573 30<-302.766 -195.234> 640 20G<-352 -318 -180 -146> 656 78<-318 -276 -222 -146>
VStem: -352 76<656 734> -352 34<617.891 660> -222 76<656 734> -180 34<617.891 660>
LayerCount: 2
Fore
SplineSet
-249 573 m 3xa4
 -338 573 -352 633 -352 656 c 1xb4
 -318 660 l 1
 -318 629 -306 603 -249 603 c 3
 -192 603 -180 629 -180 660 c 1xca
 -146 656 l 1
 -146 633 -160 573 -249 573 c 3xa4
-276 656 m 1
 -352 656 l 1
 -352 734 l 1
 -276 734 l 1
 -276 656 l 1
-146 656 m 1
 -222 656 l 1
 -222 734 l 1
 -146 734 l 1
 -146 656 l 1
EndSplineSet
EndChar
StartChar: uni1D6B
Encoding: 7531 7531 139
Width: 620
Flags: HW
CounterMasks: 1 fc
LayerCount: 2
Fore
SplineSet
147 258 m 1
 268 271 291 295 305 413 c 1
 315 413 l 1
 329 295 352 271 473 258 c 1
 473 248 l 1
 352 235 329 211 315 93 c 1
 305 93 l 1
 291 211 268 235 147 248 c 1
 147 258 l 1
314 -4 m 3
 191 -4 62 69 62 249 c 3
 62 422 184 510 305 510 c 3
 429 510 558 437 558 257 c 3
 558 84 436 -4 314 -4 c 3
303 450 m 3
 214 450 128 376 128 251 c 3
 128 119 224 56 316 56 c 3
 406 56 492 130 492 255 c 3
 492 387 396 450 303 450 c 3
EndSplineSet
EndChar
StartChar: emdash
Encoding: 8212 8212 62
Width: 800
Flags: HW
HStem: 230 50<0 800>
LayerCount: 2
Fore
SplineSet
0 230 m 1
 0 280 l 1
 800 280 l 1
 800 230 l 1
 0 230 l 1
EndSplineSet
EndChar
StartChar: quoteright
Encoding: 8217 8217 71
Width: 300
Flags: HW
HStem: 430 334<123 177>
VStem: 123 54<430 764>
LayerCount: 2
Fore
SplineSet
123 764 m 1
 177 764 l 1
 177 430 l 1
 123 430 l 1
 123 764 l 1
EndSplineSet
EndChar
StartChar: Eogonek_acutecomb
Encoding: 65545 -1 185
Width: 560
Flags: HW
HStem: -4 60<189.811 356.281> 201 60<133.027 445> 416 61<104 166.291> 450 60<140.173 346.995>
VStem: 67 66<111.551 200.402>
LayerCount: 2
Fore
SplineSet
415 746 m 5xcc
 235 586 l 5
 192 586 l 5
 192 596 l 5
 334 766 l 5
 415 766 l 5
 415 746 l 5xcc
104 477 m 1xec
 145 498 204 510 265 510 c 3
 394 510 498 435 498 252 c 3
 498 60 381 -4 270 -4 c 3
 155.923828125 -4 67 60.0087890625 67 194 c 3
 67 221.40234375 72 248 75 261 c 1
 445 261 l 1
 474 201 l 1
 135 201 l 1
 133.415039062 193.661132812 133 184.04296875 133 175 c 3
 133 117 184.26953125 56 272 56 c 3
 346 56 432 97 432 249 c 3
 432 381 360 450 263 450 c 3xdc
 209 450 157 440 116 416 c 1
 104 416 l 1
 104 477 l 1xec
EndSplineSet
LCarets2: 1 0
Ligature2: "liga-1" Eogonek acutecomb
EndChar
StartChar: Eth_uni030C
Encoding: 65546 -1 186
Width: 598
Flags: HW
HStem: 714 20G<66 251 487.161 587> 714 20G<66 251 487.161 587>
VStem: 359 66<138.235 415.99>
LayerCount: 2
Fore
SplineSet
336 714 m 3x95
 247 714 233 774 233 797 c 1x99
 267 801 l 1
 267 770 279 744 336 744 c 3
 393 744 405 770 405 801 c 1
 439 797 l 1
 439 774 425 714 336 714 c 3x95
309 797 m 1
 233 797 l 1
 233 875 l 1
 309 875 l 1
 309 797 l 1
439 797 m 1
 363 797 l 1
 363 875 l 1
 439 875 l 1
 439 797 l 1
425 279 m 3x52
 425 48 286 -86 162 -178 c 1
 62 -178 l 1
 62 -168 l 1
 218 -74 359 61 359 272 c 3
 359 483 234 631 66 724 c 1
 66 734 l 1
 171 734 l 1
 331 625 425 485 425 279 c 3x52
506 734 m 1
 587 734 l 1
 587 724 l 1
 168 283 l 1
 595 -168 l 1
 595 -178 l 1
 513 -178 l 1
 84 276 l 1
 84 286 l 1
 506 734 l 1
EndSplineSet
LCarets2: 1 0
Ligature2: "liga-1" Eth uni030C
EndChar
StartChar: F_uni030C
Encoding: 65547 -1 187
Width: 520
Flags: HW
HStem: -182 60<76.1161 255.494> -163 62<75 201.848> 34 64<65 127.651> 641 64<350.023 406> 680 60<170.03 363.543>
VStem: 65 66<509.621 640.971> 263 64<-113.265 -29.905> 372 66<98.0838 232.895>
LayerCount: 2
Fore
SplineSet
360 -155 m 0x813a
 360 -86 401 -53 444 -53 c 1x913a
 448 -83 l 1
 407 -83 394 -111 394 -163 c 0x293a
 360 -155 l 0x813a
444 -53 m 1
 520 -53 l 1
 520 -131 l 1
 444 -131 l 1
 444 -53 l 1
360 -155 m 1
 436 -155 l 1
 436 -233 l 1
 360 -233 l 1
 360 -155 l 1
327 -77 m 0
 327 -140 279 -182 204 -182 c 0x4132
 158 -182 118 -176 75 -163 c 1
 75 -101 l 1
 89 -101 l 1x2132
 130 -117 168 -122 204 -122 c 0x4132
 244 -122 263 -103 263 -74 c 0
 263 -30 230 -16 129 11 c 1
 130 60 l 1
 243 28 327 1 327 -77 c 0
65 569 m 3
 65 684 144 740 257 740 c 3x0576
 312 740 363 726 406 705 c 1
 406 641 l 1
 396 641 l 1x01b6
 352 668 298 680 250 680 c 3
 188 680 131 653 131 572 c 3
 131 424 438 364 438 174 c 3
 438 78 388 -4 237 -4 c 3
 180 -4 113 12 65 34 c 1
 65 98 l 1
 75 98 l 1
 132 70 199 56 247 56 c 3
 321 56 372 94 372 170 c 3x0576
 372 318 65 379 65 569 c 3
EndSplineSet
LCarets2: 1 0
Ligature2: "liga-1" F uni030C
EndChar
StartChar: H_uni030C
Encoding: 65549 -1 189
Width: 520
Flags: HW
HStem: -4 60<209.467 435.464> 442 60<142 442> 714 20G<90 156> 714 20G<90 156>
VStem: 90 66<115.422 442 502 734> 142 14<442 502>
LayerCount: 2
Fore
SplineSet
266 -47 m 7xf080
 355 -47 369 -107 369 -130 c 5xf0a0
 335 -134 l 5
 335 -103 323 -77 266 -77 c 7
 209 -77 197 -103 197 -134 c 5xf050
 163 -130 l 5
 163 -107 177 -47 266 -47 c 7xf080
293 -130 m 29
 369 -130 l 29
 369 -208 l 29
 293 -208 l 29
 293 -130 l 29
163 -130 m 29
 239 -130 l 29
 239 -208 l 29
 163 -208 l 29
 163 -130 l 29
142 442 m 25xf1
 142 502 l 25
 442 502 l 25
 442 442 l 25
 142 442 l 25xf1
156 206 m 3xfa
 156 98 210.200195312 56 299 56 c 3
 355.15625 56 403.921875 59 455 69 c 1
 455 59 l 1
 435 4 l 1
 383.8828125 -4 352.8828125 -4 292 -4 c 3
 192.571289062 -4 90 30 90 206 c 0
 90 734 l 1
 156 734 l 1
 156 520 156 287 156 206 c 3xfa
EndSplineSet
LCarets2: 1 0
Ligature2: "liga-1" H uni030C
EndChar
StartChar: Imacron_acutecomb
Encoding: 65551 -1 191
Width: 470
Flags: HW
HStem: 573 30<-302.766 -195.234> 640 20G<-352 -318 -180 -146> 656 78<-318 -276 -222 -146>
VStem: -352 76<656 734> -352 34<617.891 660> -222 76<656 734> -180 34<617.891 660>
LayerCount: 2
Fore
SplineSet
261 573 m 7xe840
 172 573 158 633 158 656 c 5xea40
 192 660 l 5
 192 629 204 603 261 603 c 7
 318 603 330 629 330 660 c 5xf120
 364 656 l 5
 364 633 350 573 261 573 c 7xe840
234 656 m 5
 158 656 l 5xea
 158 734 l 5xe5
 234 734 l 5xe6
 234 656 l 5
364 656 m 5xe840
 288 656 l 5
 288 734 l 5
 364 734 l 5
 364 656 l 5xe840
385 855 m 5
 205 695 l 5
 162 695 l 5xe4
 162 705 l 5
 304 875 l 5
 385 875 l 5
 385 855 l 5
422 -0.8935546875 m 1
 404.87890625 -3.568359375 399.828125 -4 376 -4 c 3
 302 -4 236 49 236 154 c 2
 236 442 l 1
 35 444 l 1
 35 502 l 1
 302 502 l 1
 302 160 l 2xe080
 302 79 350.376953125 59 393 59 c 3
 408.893554688 59 420.220703125 59.328125 433 62.5322265625 c 1
 433 52.5322265625 l 25
 422 -0.8935546875 l 1
EndSplineSet
LCarets2: 1 0
Ligature2: "liga-1" Imacron acutecomb
EndChar
StartChar: J_uni030C
Encoding: 65553 -1 193
Width: 680
Flags: HW
HStem: 4 60<84 646> 680 60<258.748 411.911>
VStem: 148 70<506 642.032> 471 66<412.766 614.827>
LayerCount: 2
Fore
SplineSet
346 -47 m 7xfe20
 435 -47 449 -107 449 -130 c 5xfea0
 415 -134 l 5
 415 -103 403 -77 346 -77 c 7
 289 -77 277 -103 277 -134 c 5xfd60
 243 -130 l 5
 243 -107 257 -47 346 -47 c 7xfe20
373 -130 m 29
 449 -130 l 29
 449 -208 l 29
 373 -208 l 29
 373 -130 l 29
243 -130 m 29
 319 -130 l 29
 319 -208 l 29
 243 -208 l 29
 243 -130 l 29
148 571 m 0
 148 677 228 740 340 740 c 0
 457.602539062 740 537 657.9921875 537 527 c 0
 537 306.9296875 352 108 36 10 c 1
 36 79 l 1
 320 172 471 356.037109375 471 518 c 0
 471 620.065429688 416.765625 680 340 680 c 0
 263 680 214 637.001953125 214 567 c 3
 214 544.999023438 215 532 218 516 c 1
 218 506 l 1
 154 506 l 1
 149 525 148 546 148 571 c 0
36 4 m 1
 36 10 l 1
 84 64 l 1
 660 64 l 1
 660 54 l 1
 646 4 l 1
 36 4 l 1
EndSplineSet
LCarets2: 1 0
Ligature2: "liga-1" J uni030C
EndChar
StartChar: K_uni030C
Encoding: 65556 -1 196
Width: 620
Flags: HW
HStem: 714 20G<456 522> 714 20G<456 522>
VStem: 96 66<64 476> 456 66<-4 440 453 734>
LayerCount: 2
Fore
SplineSet
256 573 m 7x28a0
 167 573 153 633 153 656 c 5x2aa0
 187 660 l 5
 187 629 199 603 256 603 c 7
 313 603 325 629 325 660 c 5x3160
 359 656 l 5
 359 633 345 573 256 573 c 7x28a0
229 656 m 5
 153 656 l 5
 153 734 l 5
 229 734 l 5
 229 656 l 5
359 656 m 5
 283 656 l 5
 283 734 l 5
 359 734 l 5
 359 656 l 5
513 440 m 1
 181 30 l 1
 110 30 l 1
 110 43 l 1
 460 476 l 1
 513 453 l 1
 513 440 l 1
522 -4 m 1xa820
 456 -4 l 1
 456 734 l 1
 522 734 l 1
 522 -4 l 1xa820
110 30 m 1
 96 30 l 1
 96 476 l 1
 162 476 l 17
 162 64 l 1x2420
 110 30 l 1
EndSplineSet
LCarets2: 1 0
Ligature2: "liga-1" K uni030C
EndChar
StartChar: Omacron_acutecomb
Encoding: 65560 -1 200
Width: 520
Flags: HW
HStem: -4 60<217.087 407.518> 29 61<385.981 443> 418 67<371.75 441> 450 60<213.585 408.908>
VStem: 62 66<149.777 356.678>
LayerCount: 2
Fore
SplineSet
271 573 m 3x0a90
 182 573 168 633 168 656 c 1x0ad0
 202 660 l 1
 202 629 214 603 271 603 c 3
 328 603 340 629 340 660 c 1x0ca8
 374 656 l 1
 374 633 360 573 271 573 c 3x0a90
244 656 m 1
 168 656 l 1x0ac0
 168 734 l 1x09a0
 244 734 l 1x09c0
 244 656 l 1
374 656 m 1x0a90
 298 656 l 1
 298 734 l 1
 374 734 l 1
 374 656 l 1x0a90
395 855 m 1
 215 695 l 1
 172 695 l 1x0980
 172 705 l 1
 314 875 l 1
 395 875 l 1
 395 855 l 1
443 29 m 1x4880
 402 8 356 -4 301 -4 c 3
 177 -4 62 69 62 249 c 3
 62 422 173 510 295 510 c 3x9880
 351 510 395 501 441 485 c 1
 441 418 l 1
 432 418 l 1x2880
 386 438 350 450 293 450 c 3
 203 450 128 376 128 251 c 3
 128 119 210 56 303 56 c 3x9880
 349 56 390 66 431 90 c 1
 443 90 l 1
 443 29 l 1x4880
EndSplineSet
LCarets2: 1 0
Ligature2: "liga-1" Omacron acutecomb
EndChar
StartChar: P_uni030C
Encoding: 65564 -1 204
Width: 670
Flags: HW
HStem: -6 60<250.643 423.467> 211 60<309.688 506.854> 450 60<304.646 445.946> 680 60<383.678 535>
VStem: 68 66<186.606 449.812> 208 67<302.246 420.565> 510 66<151.651 379.168>
LayerCount: 2
Fore
SplineSet
346 -47 m 7xfe88
 435 -47 449 -107 449 -130 c 5xfea8
 415 -134 l 5
 415 -103 403 -77 346 -77 c 7
 289 -77 277 -103 277 -134 c 5xfe58
 243 -130 l 5
 243 -107 257 -47 346 -47 c 7xfe88
373 -130 m 29
 449 -130 l 29
 449 -208 l 29
 373 -208 l 29
 373 -130 l 29
243 -130 m 29
 319 -130 l 29
 319 -208 l 29
 243 -208 l 29
 243 -130 l 29
364 510 m 3
 499 510 576 424 576 268 c 0
 576 114 491 -6 337 -6 c 0
 174 -6 68 115 68 309 c 0
 68 585 258 740 525 740 c 9
 535 740 l 1
 535 680 l 1
 300 680 134 560 134 314 c 0
 134 153 216 54 337 54 c 0
 453 54 510 145 510 263 c 0
 510 389 461 450 367 450 c 3
 311 450 275 410 275 363 c 3
 275 287 338 271 414 271 c 3
 488.802734375 271 574 274 623 280 c 1
 623 270 l 1
 613 220 l 1
 559 213 493.411132812 211 410 211 c 3
 319 211 208 240 208 361 c 3xff08
 208 454 281 510 364 510 c 3
EndSplineSet
LCarets2: 1 0
Ligature2: "liga-1" P uni030C
EndChar
StartChar: Umacron_acutecomb
Encoding: 65569 -1 208
Width: 590
Flags: HW
HStem: -4 60<215.907 377.084> 450 60<212.515 373.717>
VStem: 62 66<146.581 356.678> 462 66<149.322 359.419>
LayerCount: 2
Fore
SplineSet
289 573 m 3xea50
 200 573 186 633 186 656 c 1xeb50
 220 660 l 1
 220 629 232 603 289 603 c 3
 346 603 358 629 358 660 c 1xf2b0
 392 656 l 1
 392 633 378 573 289 573 c 3xea50
262 656 m 1
 186 656 l 1xeb10
 186 734 l 1xe690
 262 734 l 1xe710
 262 656 l 1
392 656 m 1xea50
 316 656 l 1
 316 734 l 1
 392 734 l 1
 392 656 l 1xea50
413 855 m 1
 233 695 l 1
 190 695 l 1xe610
 190 705 l 1
 332 875 l 1
 413 875 l 1
 413 855 l 1
299 -4 m 3
 176 -4 62 69 62 249 c 3
 62 422 169 510 290 510 c 3
 414 510 528 437 528 257 c 3
 528 84 421 -4 299 -4 c 3
288 450 m 3
 199 450 128 376 128 251 c 3
 128 119 209 56 301 56 c 3
 391 56 462 130 462 255 c 3
 462 387 381 450 288 450 c 3
EndSplineSet
LCarets2: 1 0
Ligature2: "liga-1" Umacron acutecomb
EndChar
StartChar: V_uni030C
Encoding: 65571 -1 209
Width: 630
Flags: HW
HStem: 224 60<176.06 301.519> 655 65<386.832 495> 680 60<266.547 476.689>
VStem: 75 66<-178 183.099> 162 66<488.914 642.342>
LayerCount: 2
Fore
SplineSet
326 -47 m 7xe5
 415 -47 429 -107 429 -130 c 5xe540
 395 -134 l 5
 395 -103 383 -77 326 -77 c 7
 269 -77 257 -103 257 -134 c 5xe4a0
 223 -130 l 5
 223 -107 237 -47 326 -47 c 7xe5
353 -130 m 29
 429 -130 l 29
 429 -208 l 29
 353 -208 l 29
 353 -130 l 29
223 -130 m 29
 299 -130 l 29
 299 -208 l 29
 223 -208 l 29
 223 -130 l 29
340 680 m 3xee
 278 680 228 644 228 581 c 3
 228 533 246.151367188 488 289 414 c 2
 626 -168 l 1
 627 -178 l 1
 558 -178 l 1
 239 372 l 2
 190.280273438 456 162 498 162 580 c 3
 162 683 241 740 340 740 c 3xee
 397 740 465 730 495 720 c 1
 495 655 l 1
 485 655 l 1xf6
 443 671 387 680 340 680 c 3xee
237 224 m 3
 172 224 141 179 141 70 c 2
 141 -178 l 1
 75 -178 l 1
 75 90 l 2
 75 228 137 284 227 284 c 3
 315 284 390 211 427 155 c 1
 391 111 l 1
 355 178 301 224 237 224 c 3
EndSplineSet
LCarets2: 1 0
Ligature2: "liga-1" V uni030C
EndChar
StartChar: adieresis_acutecomb
Encoding: 65573 -1 140
Width: 570
Flags: HW
HStem: -4 60<210.383 379.033> 220 60<276 437> 416 61<399.56 460> 450 60<213.984 424.182> 596 78<163 222 350 409> 620 21G<200.518 232.432 339.237 371.482>
VStem: 62 66<144.754 361.292> 163 76<596 641.558> 333 76<596 641.558> 437 68<112.077 220>
LayerCount: 2
Fore
SplineSet
491 795 m 5xc7c0
 311 635 l 5
 268 635 l 5
 268 645 l 5
 410 815 l 5
 491 815 l 5
 491 795 l 5xc7c0
333 674 m 29xcbc0
 409 674 l 29
 409 596 l 29
 333 596 l 29
 333 674 l 29xcbc0
163 674 m 29
 239 674 l 29
 239 596 l 29
 163 596 l 29
 163 674 l 29
285 740.786132812 m 5
 222 620 l 5
 198.844726562 641.557617188 l 5
 264 764 l 5
 306 764 l 5
 373.155273438 641.557617188 l 5
 350 620 l 5
 285 740.786132812 l 5
460 477 m 1xe3c0
 460 416 l 1
 448 416 l 1xe3c0
 407 440 352 450 304 450 c 3
 207 450 128 392 128 255 c 3
 128 108.6484375 211 56 295 56 c 3
 375.006835938 56 435 104 442 168 c 1
 442 220 l 1
 281 220 l 1
 281 280 l 1
 508 280 l 1
 509 260 510 211.301757812 510 183 c 3
 510 74.0087890625 411.076171875 -4 290 -4 c 3
 178 -4 62 80 62 252 c 3
 62 431 179 510 308 510 c 3xd3c0
 365 510 419 498 460 477 c 1xe3c0
EndSplineSet
LCarets2: 1 0
Ligature2: "liga-1" adieresis acutecomb
EndChar
StartChar: aogonek_acutecomb
Encoding: 65576 -1 143
Width: 520
Flags: HW
HStem: -4 60<130.23 313.381> 416 61<77 134.019> 450 60<112.482 280.633> 580 20G<342.934 422>
VStem: 392 66<147.256 356.223>
LayerCount: 2
Fore
SplineSet
415 746 m 5x8c
 235 586 l 5
 192 586 l 5
 192 596 l 5
 334 766 l 5
 415 766 l 5
 415 746 l 5x8c
354 600 m 1x94
 422 600 l 1
 422 590 l 1
 133 75 l 1
 79 103 l 1
 354 600 l 1x94
77 477 m 1xc4
 118 498 164 510 219 510 c 3
 343 510 458 437 458 257 c 3
 458 84 356 -4 240 -4 c 3
 179 -4 125 11 79 36 c 1
 79 103 l 1
 88 103 l 1
 134 73 179 56 242 56 c 3
 325 56 392 130 392 255 c 3
 392 387 310 450 217 450 c 3xa4
 171 450 130 440 89 416 c 1
 77 416 l 1
 77 477 l 1xc4
EndSplineSet
LCarets2: 1 0
Ligature2: "liga-1" aogonek acutecomb
EndChar
StartChar: b_uni030C
Encoding: 65578 -1 145
Width: 560
Flags: HW
HStem: 419 67<406.75 476> 451 55<222.083 443.908>
VStem: 67 66<159.955 351.529> 285 66<-178 6.25551>
LayerCount: 2
Fore
SplineSet
276 573 m 7x0b10
 187 573 173 633 173 656 c 5x0b90
 207 660 l 5
 207 629 219 603 276 603 c 7
 333 603 345 629 345 660 c 5x0d48
 379 656 l 5
 379 633 365 573 276 573 c 7x0b10
249 656 m 5
 173 656 l 5
 173 734 l 5
 249 734 l 5
 249 656 l 5
379 656 m 5
 303 656 l 5
 303 734 l 5
 379 734 l 5
 379 656 l 5
164 506 m 1x99
 486 80 l 1
 486 -4 l 1
 476 -4 l 1
 95 496 l 1
 95 506 l 1
 164 506 l 1x99
351 -178 m 1x1920
 285 -178 l 1
 285 1.7255859375 l 1
 172 22.67578125 67 94.212890625 67 253 c 0
 67 436 208 511 330 511 c 0
 386 511 430 502 476 486 c 1
 476 419 l 1
 467 419 l 1x2920
 421 439 385 451 328 451 c 0
 238 451 133 390 133 255 c 0
 133 119.412109375 228 64.4609375 351 56.001953125 c 1
 351 -178 l 1x1920
EndSplineSet
LCarets2: 1 0
Ligature2: "liga-1" b uni030C
EndChar
StartChar: emacron_acutecomb
Encoding: 65582 -1 149
Width: 580
Flags: HW
HStem: -4 62<366.496 498.892> 220 60<159.875 504> 446 60<150.148 257.859>
VStem: 62 66<309.151 424.164> 279 66<80.5109 424.28>
LayerCount: 2
Fore
SplineSet
266 573 m 3xf510
 177 573 163 633 163 656 c 1xf590
 197 660 l 1
 197 629 209 603 266 603 c 3
 323 603 335 629 335 660 c 1xf948
 369 656 l 1
 369 633 355 573 266 573 c 3xf510
239 656 m 1
 163 656 l 1xf580
 163 734 l 1xf340
 239 734 l 1xf380
 239 656 l 1
369 656 m 1xf510
 293 656 l 1
 293 734 l 1
 369 734 l 1
 369 656 l 1xf510
390 855 m 1
 210 695 l 1
 167 695 l 1xf3
 167 705 l 1
 309 875 l 1
 390 875 l 1
 390 855 l 1
128 366 m 0
 128 309 175 280 231 280 c 2
 504 280 l 1
 504 220 l 1
 223 220 l 2
 133 220 62 273 62 363 c 0
 62 446 121 506 204 506 c 0
 301 506 345 448 345 354 c 2
 345 164 l 2
 345 73 380 58 433 58 c 0
 466 58 490 62 509 69 c 1
 509 59 l 1
 498 3 l 1
 479 -2 457 -4 432 -4 c 0
 342 -4 279 29 279 154 c 2
 279 349 l 2xf120
 279 408 259 446 207 446 c 0
 161 446 128 416 128 366 c 0
EndSplineSet
LCarets2: 1 0
Ligature2: "liga-1" emacron acutecomb
EndChar
StartChar: idieresis_acutecomb
Encoding: 65589 -1 155
Width: 470
Flags: HW
HStem: -4 63<329.546 422> 442 60<35 236>
VStem: 236 66<88.7541 442>
LayerCount: 2
Fore
SplineSet
445 795 m 5xd8
 265 635 l 5
 222 635 l 5
 222 645 l 5
 364 815 l 5
 445 815 l 5
 445 795 l 5xd8
287 674 m 29xea
 363 674 l 29
 363 596 l 29
 287 596 l 29
 287 674 l 29xea
117 674 m 29
 193 674 l 29
 193 596 l 29
 117 596 l 29
 117 674 l 29
239 740.786132812 m 5
 176 620 l 5
 152.844726562 641.557617188 l 5
 218 764 l 5
 260 764 l 5
 327.155273438 641.557617188 l 5
 304 620 l 5
 239 740.786132812 l 5
422 -0.8935546875 m 1
 404.87890625 -3.568359375 399.828125 -4 376 -4 c 3
 302 -4 236 49 236 154 c 2
 236 442 l 1
 35 444 l 1
 35 502 l 1
 302 502 l 1
 302 160 l 2xcc
 302 79 350.376953125 59 393 59 c 3
 408.893554688 59 420.220703125 59.328125 433 62.5322265625 c 1
 433 52.5322265625 l 25
 422 -0.8935546875 l 1
EndSplineSet
LCarets2: 1 0
Ligature2: "liga-1" idieresis acutecomb
EndChar
StartChar: k_dagger
Encoding: 65593 -1 158
Width: 620
Flags: HW
HStem: 600 50<33 267>
VStem: 123 54<280 764>
LayerCount: 2
Fore
SplineSet
243 764 m 1x29c0
 297 764 l 1
 297 510 l 1
 243 510 l 1
 243 764 l 1x29c0
153 620 m 1
 153 670 l 1
 597 670 l 5
 597 620 l 5
 153 620 l 1
513 440 m 1
 181 30 l 1
 110 30 l 1
 110 43 l 1
 460 476 l 1
 513 453 l 1
 513 440 l 1
522 -4 m 1x8dc0
 456 -4 l 1
 456 734 l 1
 522 734 l 1
 522 -4 l 1x8dc0
110 30 m 1
 96 30 l 1
 96 476 l 1
 162 476 l 17
 162 64 l 1
 110 30 l 1
EndSplineSet
LCarets2: 1 0
Ligature2: "liga-1" k dagger
EndChar
StartChar: odieresis_acutecomb
Encoding: 65598 -1 163
Width: 520
Flags: HW
HStem: -4 60<217.087 407.518> 29 61<385.981 443> 418 67<371.75 441> 450 60<213.585 408.908> 596 78<153 212 340 399> 620 21G<190.518 222.432 329.237 361.482>
VStem: 62 66<149.777 356.678> 153 76<596 641.558> 323 76<596 641.558>
LayerCount: 2
Fore
SplineSet
481 795 m 5x0780
 301 635 l 5
 258 635 l 5
 258 645 l 5
 400 815 l 5
 481 815 l 5
 481 795 l 5x0780
323 674 m 29x0b80
 399 674 l 29
 399 596 l 29
 323 596 l 29
 323 674 l 29x0b80
153 674 m 29
 229 674 l 29
 229 596 l 29
 153 596 l 29
 153 674 l 29
275 740.786132812 m 5
 212 620 l 5
 188.844726562 641.557617188 l 5
 254 764 l 5
 296 764 l 5
 363.155273438 641.557617188 l 5
 340 620 l 5
 275 740.786132812 l 5
443 29 m 1x4380
 402 8 356 -4 301 -4 c 3
 177 -4 62 69 62 249 c 3
 62 422 173 510 295 510 c 3x9380
 351 510 395 501 441 485 c 1
 441 418 l 1
 432 418 l 1x2380
 386 438 350 450 293 450 c 3
 203 450 128 376 128 251 c 3
 128 119 210 56 303 56 c 3x9380
 349 56 390 66 431 90 c 1
 443 90 l 1
 443 29 l 1x4380
EndSplineSet
LCarets2: 1 0
Ligature2: "liga-1" odieresis acutecomb
EndChar
StartChar: p_quoteright
Encoding: 65603 -1 117
Width: 670
Flags: HW
HStem: -6 60<250.643 423.467> 211 60<309.688 506.854> 450 60<304.646 445.946> 680 60<383.678 535>
VStem: 68 66<186.606 449.812> 208 67<302.246 420.565> 510 66<151.651 379.168>
LayerCount: 2
Fore
SplineSet
198 865 m 1xd380
 198 875 l 1
 258 875 l 5
 546 516 l 1
 546 506 l 1
 489 506 l 1
 198 865 l 1xd380
202 708 m 1xc780
 192 708 l 1
 192 757 l 1
 379 868 l 1
 389 868 l 1
 389 817 l 1
 202 708 l 1xc780
364 510 m 3xeb80
 499 510 576 424 576 268 c 0
 576 114 491 -6 337 -6 c 0
 174 -6 68 115 68 309 c 0
 68 585 258 740 525 740 c 9
 535 740 l 1
 535 680 l 1
 300 680 134 560 134 314 c 0
 134 153 216 54 337 54 c 0
 453 54 510 145 510 263 c 0
 510 389 461 450 367 450 c 3
 311 450 275 410 275 363 c 3
 275 287 338 271 414 271 c 3
 488.802734375 271 574 274 623 280 c 1
 623 270 l 1
 613 220 l 1
 559 213 493.411132812 211 410 211 c 3
 319 211 208 240 208 361 c 3
 208 454 281 510 364 510 c 3xeb80
EndSplineSet
LCarets2: 1 0
Ligature2: "liga-1" p quoteright
EndChar
StartChar: p_uni030C
Encoding: 65604 -1 168
Width: 670
Flags: HW
HStem: -6 60<250.643 423.467> 211 60<309.688 506.854> 450 60<304.646 445.946> 680 60<383.678 535>
VStem: 68 66<186.606 449.812> 208 67<302.246 420.565> 510 66<151.651 379.168>
LayerCount: 2
Back
SplineSet
525 740 m 2
 535 740 l 1
 535 680 l 1
 300 680 134 560 134 314 c 0
 134 153 212 54 335 54 c 0
 451 54 507 135 507 253 c 0
 507 379 455 450 351 450 c 0
 305 450 273 436 241 416 c 1
 217 472 l 1
 253 497 297 510 351 510 c 0
 483 510 573 414 573 258 c 0
 573 104 489 -6 335 -6 c 0
 167 -6 68 115 68 309 c 0
 68 585 258 740 525 740 c 2
477 280 m 2
 623 280 l 1
 623 220 l 1
 471 220 l 2
 350 220 208 255 208 401 c 3
 208 422 211 446 217 472 c 1
 283 465 l 1
 279 445 275 425 275 408 c 3
 275 292 389 280 477 280 c 2
EndSplineSet
Fore
SplineSet
346 -47 m 7xfe88
 435 -47 449 -107 449 -130 c 5xfea8
 415 -134 l 5
 415 -103 403 -77 346 -77 c 7
 289 -77 277 -103 277 -134 c 5xfe58
 243 -130 l 5
 243 -107 257 -47 346 -47 c 7xfe88
373 -130 m 29
 449 -130 l 29
 449 -208 l 29
 373 -208 l 29
 373 -130 l 29
243 -130 m 29
 319 -130 l 29
 319 -208 l 29
 243 -208 l 29
 243 -130 l 29
364 510 m 3
 499 510 576 424 576 268 c 0
 576 114 491 -6 337 -6 c 0
 174 -6 68 115 68 309 c 0
 68 585 258 740 525 740 c 9
 535 740 l 1
 535 680 l 1
 300 680 134 560 134 314 c 0
 134 153 216 54 337 54 c 0
 453 54 510 145 510 263 c 0
 510 389 461 450 367 450 c 3
 311 450 275 410 275 363 c 3
 275 287 338 271 414 271 c 3
 488.802734375 271 574 274 623 280 c 1
 623 270 l 1
 613 220 l 1
 559 213 493.411132812 211 410 211 c 3
 319 211 208 240 208 361 c 3xff08
 208 454 281 510 364 510 c 3
EndSplineSet
LCarets2: 1 0
Ligature2: "liga-1" p uni030C
EndChar
StartChar: t_quoteright
Encoding: 65606 -1 170
Width: 466
Flags: HW
HStem: 662 60<8 142> 679 20G<328.5 451> 708 14<142 152>
VStem: 169 66<0 376.808>
LayerCount: 2
Fore
SplineSet
168 865 m 5x10
 168 875 l 5
 224 875 l 5
 436 503 l 5
 436 493 l 5
 383 493 l 5
 168 865 l 5x10
152 708 m 5x30
 142 708 l 5
 142 757 l 5
 329 868 l 5
 339 868 l 5
 339 817 l 5
 152 708 l 5x30
451 699 m 1x50
 451 629 l 1
 274 519 235 386 235 154 c 2
 235 0 l 1
 169 0 l 1
 169 164 l 2
 169 406 206 562 451 699 c 1x50
8 662 m 1x90
 8 722 l 1x90
 451 722 l 1x30
 451 662 l 1
 8 662 l 1x90
EndSplineSet
LCarets2: 1 0
Ligature2: "liga-1" t quoteright
EndChar
StartChar: uni1D6B_acutecomb
Encoding: 65610 -1 173
Width: 620
Flags: HW
CounterMasks: 1 0e
LayerCount: 2
Fore
SplineSet
445 746 m 5
 265 586 l 5
 222 586 l 5
 222 596 l 5
 364 766 l 5
 445 766 l 5
 445 746 l 5
147 258 m 1
 268 271 291 295 305 413 c 1
 315 413 l 1
 329 295 352 271 473 258 c 1
 473 248 l 1
 352 235 329 211 315 93 c 1
 305 93 l 1
 291 211 268 235 147 248 c 1
 147 258 l 1
314 -4 m 3
 191 -4 62 69 62 249 c 3
 62 422 184 510 305 510 c 3
 429 510 558 437 558 257 c 3
 558 84 436 -4 314 -4 c 3
303 450 m 3
 214 450 128 376 128 251 c 3
 128 119 224 56 316 56 c 3
 406 56 492 130 492 255 c 3
 492 387 396 450 303 450 c 3
EndSplineSet
LCarets2: 1 0
Ligature2: "liga-1" uni1D6B acutecomb
EndChar
